<svg xmlns="http://www.w3.org/2000/svg" xmlns:xlink="http://www.w3.org/1999/xlink" width="174" height="171" fill="none" xmlns:v="https://vecta.io/nano"><style><![CDATA[.B{fill:#fff}.C{fill:#263238}.D{fill:#ffc4c0}.E{fill:#ffce28}.F{fill:#414249}.G{fill:#d2b357}.H{fill:#fff6dc}.I{fill:#000}.J{fill:#ebebeb}.K{fill:#2c2e35}.L{fill:#a6a6a6}.M{fill:#dbdbdb}]]></style><path d="M26.018 69.134c-1.805 1.115-3.884 1.706-6.005 1.706s-4.201-.591-6.005-1.706a11.42 11.42 0 0 1-4.98-12.836A11.42 11.42 0 0 1 20.012 48a11.42 11.42 0 0 1 10.986 8.299 11.42 11.42 0 0 1-4.98 12.836z" class="H"/><path d="M23.488 58.102c0 .687-.204 1.359-.586 1.931s-.925 1.017-1.56 1.28-1.334.332-2.008.198a3.48 3.48 0 0 1-1.78-.951c-.487-.486-.817-1.105-.951-1.779s-.065-1.373.198-2.008a3.48 3.48 0 0 1 1.28-1.56c.571-.382 1.244-.586 1.931-.586a3.47 3.47 0 0 1 2.457 1.018 3.48 3.48 0 0 1 1.018 2.458zm2.53 9.585v1.447c-1.805 1.115-3.884 1.706-6.005 1.706s-4.201-.591-6.005-1.706v-1.431c0-1.593.633-3.12 1.759-4.246s2.654-1.759 4.246-1.759 3.12.633 4.246 1.759 1.759 2.654 1.759 4.246v-.016z" class="B"/><path d="M10.762 21.702c.201-.123.431-.188.667-.188s.466.065.667.188l.344.194.356.178a1.28 1.28 0 0 1 .527.447c.131.195.206.422.217.656l.049 1.645 5.351-.142-.053-1.641a1.28 1.28 0 0 1 .671-1.152 7.27 7.27 0 0 0 .679-.404 1.27 1.27 0 0 1 .653-.23c.235-.015.469.035.677.145l1.443.776 2.538-4.748-1.443-.776c-.206-.112-.378-.278-.495-.482a1.27 1.27 0 0 1-.168-.67c.005-.27-.004-.54-.028-.808-.024-.237.018-.476.122-.69s.266-.395.468-.522l1.394-.865-2.829-4.502-1.402.849a1.27 1.27 0 0 1-1.33 0l-.339-.194-.352-.178a1.28 1.28 0 0 1-.748-1.107l-.049-1.645-5.33.158.053 1.637c.007.235-.053.468-.171.671a1.26 1.26 0 0 1-.499.48l-.679.404a1.27 1.27 0 0 1-.653.23c-.235.015-.469-.035-.677-.145L8.93 8.515l-2.53 4.72 1.443.772a1.26 1.26 0 0 1 .496.484c.117.205.175.437.167.672-.005.27.004.54.028.808.025.237-.018.476-.122.69s-.266.395-.468.522l-1.39.837 2.829 4.546 1.382-.865zm1.342-8.442a4.38 4.38 0 0 1 8.054.806 4.38 4.38 0 0 1-6.263 5.127c-1.024-.55-1.787-1.484-2.123-2.596s-.216-2.312.332-3.337zm146.12 104.689a.9.9 0 0 1 .353-.334c.146-.077.311-.113.476-.102h.274.279c.162-.008.322.029.465.106a.9.9 0 0 1 .344.33l.573.998 3.233-1.875-.573-.998c-.083-.143-.123-.307-.117-.472a.88.88 0 0 1 .149-.462 5.1 5.1 0 0 0 .279-.481.89.89 0 0 1 .333-.363c.143-.087.308-.132.475-.13h1.148v-3.75h-1.148c-.167.002-.332-.043-.475-.131s-.258-.212-.333-.362a5.23 5.23 0 0 0-.279-.481c-.092-.138-.144-.298-.149-.464a.88.88 0 0 1 .117-.473l.573-.995-3.233-1.875-.577 1.002a.88.88 0 0 1-.809.433h-.279-.274c-.165.01-.33-.025-.476-.102a.9.9 0 0 1-.353-.335l-.574-.998-3.233 1.875.574.995c.082.143.123.306.117.471s-.057.325-.149.462a5.2 5.2 0 0 0-.279.485c-.075.15-.191.275-.333.362s-.308.133-.475.131h-1.148v3.75h1.148c.167-.001.332.044.475.131a.9.9 0 0 1 .333.362l.279.485a.89.89 0 0 1 .149.463c.006.165-.035.328-.117.471l-.574.994 3.233 1.875.578-.998zm-1.968-5.658c0-.607.18-1.201.518-1.706a3.07 3.07 0 0 1 1.378-1.131c.561-.232 1.179-.294 1.775-.175a3.07 3.07 0 0 1 1.572.84c.43.43.722.977.841 1.573s.058 1.213-.175 1.775-.626 1.041-1.131 1.378-1.099.518-1.707.518c-.814-.001-1.594-.325-2.17-.901s-.9-1.357-.901-2.171zM24.47 31.231c.139.083.253.201.33.344s.114.303.106.465v.279.275a.89.89 0 0 1-.436.808l-.994.578 1.871 3.233 1.006-.529c.143-.082.306-.123.471-.117s.325.057.462.149l.485.279a.89.89 0 0 1 .489.808v1.148h3.75v-1.148c-.002-.167.043-.332.131-.475a.9.9 0 0 1 .362-.333l.485-.279c.137-.092.297-.144.462-.149a.89.89 0 0 1 .471.117l.994.574 1.875-3.233-1.002-.578c-.138-.083-.252-.202-.328-.344a.89.89 0 0 1-.105-.464v-.275-.279c-.007-.162.029-.322.106-.465s.191-.261.33-.344l.998-.578-1.875-3.233-.99.574a.89.89 0 0 1-.473.117c-.165-.006-.326-.057-.464-.149a4.72 4.72 0 0 0-.485-.279.89.89 0 0 1-.362-.334.9.9 0 0 1-.131-.475v-1.188h-3.758v1.148a.89.89 0 0 1-.493.808c-.167.084-.329.176-.485.279-.137.092-.297.144-.462.149a.89.89 0 0 1-.471-.117l-.994-.574-1.871 3.233.994.574zm5.658-1.972a3.07 3.07 0 0 1 2.173 5.242 3.07 3.07 0 0 1-5.245-2.167c0-.815.323-1.597.899-2.173a3.08 3.08 0 0 1 2.172-.902zM165.41 2.619h-22.409v27.182h22.409V2.619z" class="H"/><path d="M162.847 5.1h-17.288v22.219h17.288V5.1z" class="B"/><path d="M146.234 5.1h-.675v22.219h.675V5.1zm19.846-2.481h-.674v27.182h.674V2.619z" class="G"/><path d="M154.587 22.381h4.078V10.237h-4.078v12.144z" class="H"/><path d="M160.645 14.314h-11.271V7.961h11.271v6.353zm-10.867-.404h10.463V8.366h-10.463v5.545z" class="G"/><path d="M165.41 69.599h-22.409v27.182h22.409V69.599z" class="H"/><path d="M162.847 72.08h-17.288v22.219h17.288V72.08z" class="B"/><path d="M146.234 72.08h-.675v22.219h.675V72.08zm19.846-2.481h-.674v27.182h.674V69.599z" class="G"/><path d="M155.432 77.221h-4.078v12.144h4.078V77.221z" class="J"/><path d="M160.645 81.295h-11.271v-6.353h11.271v6.353zm-10.867-.404h10.463v-5.545h-10.463v5.545zM165.41 36.23h-22.409v27.182h22.409V36.23z" class="H"/><path d="M162.847 38.712h-17.288v22.219h17.288V38.712z" class="B"/><path d="M146.234 38.712h-.675v22.219h.675V38.712zm19.846-2.482h-.674v27.182h.674V36.23z" class="G"/><path d="M156.022 44.454h-3.492v8.83h3.492v-8.83z" class="H"/><path d="M159.901 56.109h-9.788v-6.49h9.788v6.49zm-9.384-.404h8.98v-5.682h-8.98v5.682z" class="G"/><path d="M14.112 104.916v58.38h35.276v-58.38H14.112zm3.205 21.637H46.2v15.199H17.317v-15.199zm0-18.816H46.2v15.199H17.317v-15.199z" fill="#f4e2ac"/><path d="M0 163.296h14.112V104.92H0v58.376z" class="G"/><path d="M39.334 122.932h6.862v-15.195h-6.862v15.195z" class="M"/><g class="G"><path d="M46.156 159.78H17.167v-14.791h28.988v14.791zm-28.693-.303h28.398v-14.185H17.462v14.185zm12.556-7.375h5.702v-2.886h-5.702v2.886z"/><path d="M34.189 152.037h-6.005v-2.752h6.005v2.752zm-5.702-.303h5.399v-2.146h-5.399v2.146z"/></g><path d="M39.334 141.752h6.862v-15.195h-6.862v15.195z" class="M"/><path d="M14.504 140.738s3.298-11.833 5.932-15.834 7.533-8.454 7.533-8.454-.109 18.246-13.465 24.288z" class="E"/><path d="M14.743 140.536a56.86 56.86 0 0 0 3.007-5.735c.377-2.115.924-4.196 1.637-6.223 0-.037.065 0 .057.024l-1.406 5.585 4.179-8.519a18.24 18.24 0 0 1 1.528-3.787c0-.036.077 0 .061.02-.401.921-.746 1.866-1.03 2.829a28.52 28.52 0 0 1 2.506-3.459c.057-.069.174 0 .117.077-2.122 2.707-3.585 5.783-4.975 8.891a47.51 47.51 0 0 0 4.134-5.169s.04 0 .028.02c-1.315 2.038-2.802 3.959-4.445 5.743-1.014 2.283-2.021 4.574-3.233 6.744 2.425-2.04 4.276-4.687 6.119-7.237.04-.057.129 0 .089.06-1.839 2.801-3.746 5.436-6.397 7.509-.537.955-1.128 1.88-1.77 2.768-.023.011-.048.016-.073.014s-.049-.011-.07-.025-.037-.034-.047-.057-.015-.048-.012-.073z" class="C"/><path d="M13.878 140.754s5.929-10.912 4.207-21.492-3.564-14.346-3.564-14.346-9.319 16.456-.643 35.838z" class="E"/><path d="M11.445 123.599a51.93 51.93 0 0 0 2.287 8.814c0-3.884.093-7.768.198-11.647a29.98 29.98 0 0 1-1.119-7.234c0-.069.105-.065.109 0 .185 2.098.533 4.179 1.039 6.223l.311-9.61c.003-.009.008-.017.016-.022s.017-.009.026-.009.019.003.026.009.013.013.016.022l-.032 15.01c.722-1.935 1.292-3.922 1.705-5.945 0-.02.036 0 .036 0a23.23 23.23 0 0 1-1.75 6.765l-.129 9.594c1.002-3.391 2.065-6.68 2.364-10.261.003-.008.008-.015.015-.02s.015-.008.024-.008.017.003.024.008a.04.04 0 0 1 .015.02c-.081 3.965-1.103 7.986-2.425 11.72-.015.035-.037.067-.065.093l-.105 3.508a.13.13 0 0 1-.129.129.13.13 0 0 1-.129-.129l-.057-7.178c-1.287-3.138-2.069-6.461-2.316-9.844 0-.029.04-.037.044-.008zm.408-1.686c.203.95.338 1.913.404 2.882 0 .032-.048.036-.057 0a20.3 20.3 0 0 1-.485-2.874c0-.068.121-.08.137-.008zm3.464-7.977c0-.032.056-.02.056 0a7.51 7.51 0 0 1-.295 1.988c-.011.019-.015.023-.02.025-.021.006-.027.005-.032.004-.019-.012-.022-.016-.025-.021-.005-.021-.005-.027-.003-.032l.319-1.964z" class="C"/><path d="M11.716 140.754s.238-11.405-3.027-17.063S0 115.144 0 115.144s2.186 20.089 11.716 25.61z" class="E"/><path d="M5.743 131.014c1.322 1.991 2.809 3.868 4.445 5.61l-2.263-6.87c-1.831-1.617-3.637-3.27-4.773-5.468-.004-.008-.005-.017-.003-.025s.008-.015.015-.02.016-.005.025-.003.015.008.02.015c1.212 1.948 2.829 3.504 4.522 5.004a88.15 88.15 0 0 0-4.546-9.906c-.008-.016-.009-.035-.003-.052s.017-.032.033-.041.034-.012.052-.008.033.014.044.029c1.039 1.678 1.983 3.413 2.829 5.197l-.865-3.67c.015-.016.021-.018.026-.018.021.008.024.013.026.018a20.55 20.55 0 0 1 1.342 4.85 58.1 58.1 0 0 1 2.877 7.791l-.368-5.108c0-.032.053-.04.057 0a27.63 27.63 0 0 1 .497 5.739l1.184 5.144c0 .045-.061.069-.073.021l-.566-2.163h-.036a23.05 23.05 0 0 1-4.498-6.053v-.013zm-3.771-9.266l1.051 1.212a9.67 9.67 0 0 1 .942 1.099c.004.019.002.023-.002.027-.018.006-.023.004-.026.001-.409-.308-.775-.669-1.087-1.075a9.12 9.12 0 0 1-.93-1.212c-.02-.044.028-.081.053-.052z" class="C"/><path d="M21.031 141.591l-.404 5.395-1.249 16.31H8.572l-1.241-16.31-.404-5.395h14.144-.04z" class="F"/><path d="M21.031 141.591l-.25 3.277-13.591.546-.291-3.823h14.144-.012z" class="K"/><path d="M5.937 143.078h16.056v-4.139H5.937v4.139z" class="F"/><path d="M0 163.296l21.54-.101 21.544-.032 43.08-.069 43.084.065 21.54.036 21.54.101-21.54.097-21.54.036-43.084.069-43.08-.069-21.544-.036L0 163.296z" class="C"/><path d="M139.711 158.087V5.908a5.21 5.21 0 0 0-5.209-5.209H36.137a5.21 5.21 0 0 0-5.209 5.209v152.179a5.21 5.21 0 0 0 5.209 5.209h98.365a5.21 5.21 0 0 0 5.209-5.209z" class="F"/><path d="M135.12 12.08H35.644v139.933h99.476V12.08z" class="B"/><path d="M97.156 7.643v-.679c0-.279-.226-.505-.505-.505H73.988c-.279 0-.505.226-.505.505v.679c0 .279.226.505.505.505h22.664c.279 0 .505-.226.505-.505zM85.32 160.572c1.692 0 3.063-1.371 3.063-3.063s-1.371-3.063-3.063-3.063-3.063 1.371-3.063 3.063 1.371 3.063 3.063 3.063z" class="K"/><path d="M135.12 12.08H35.644v139.933h99.476V12.08z" class="B"/><path d="M106.633 86.488H64.099v6.163h42.534v-6.163z" class="J"/><g class="L"><path d="M73.091 88.448v2.244h-.266v-1.649l.002-.07.006-.077-.771 1.403c-.024.047-.061.071-.11.071h-.044c-.049 0-.086-.023-.11-.071l-.786-1.409c.006.055.009.106.009.153v1.649h-.266v-2.244h.224c.027 0 .048.003.063.008s.029.02.042.044l.775 1.381.036.078.034.083.033-.083c.011-.028.024-.055.038-.08l.761-1.38c.013-.024.026-.039.041-.044a.21.21 0 0 1 .064-.008h.224zm1.128.632a.81.81 0 0 1 .313.058.67.67 0 0 1 .238.165.71.71 0 0 1 .15.258c.035.1.053.212.053.337a1.01 1.01 0 0 1-.053.338c-.035.1-.085.186-.15.257a.67.67 0 0 1-.238.165.83.83 0 0 1-.313.056c-.117 0-.222-.019-.316-.056a.67.67 0 0 1-.238-.165.73.73 0 0 1-.152-.257c-.034-.1-.052-.213-.052-.338a1.03 1.03 0 0 1 .052-.337.73.73 0 0 1 .152-.258.67.67 0 0 1 .238-.165c.094-.039.199-.058.316-.058zm0 1.416c.157 0 .273-.052.351-.157s.116-.252.116-.44-.039-.336-.116-.442-.194-.158-.351-.158a.5.5 0 0 0-.208.041c-.059.027-.108.066-.147.117a.54.54 0 0 0-.088.189c-.019.074-.028.158-.028.252 0 .188.039.335.116.44s.197.157.356.157zm1.388-.186a.45.45 0 0 0 .167.146.48.48 0 0 0 .202.042c.149 0 .264-.053.343-.158s.119-.263.119-.471c0-.194-.035-.337-.106-.427s-.17-.138-.301-.138c-.091 0-.17.021-.238.063s-.129.101-.186.177v.767zm0-.976a.82.82 0 0 1 .225-.185.6.6 0 0 1 .291-.069c.093 0 .176.018.251.053a.51.51 0 0 1 .191.155c.052.068.092.148.119.244a1.15 1.15 0 0 1 .042.324 1.23 1.23 0 0 1-.047.351c-.031.105-.077.196-.136.271a.62.62 0 0 1-.215.174.65.65 0 0 1-.285.061c-.104 0-.193-.019-.265-.058a.59.59 0 0 1-.186-.168l-.014.144c-.008.04-.032.059-.072.059h-.18v-2.307h.28v.949zm1.767-.229v1.586h-.279v-1.586h.279zm.059-.498c0 .027-.006.053-.017.077a.21.21 0 0 1-.044.063c-.019.019-.039.032-.064.042a.19.19 0 0 1-.077.016.19.19 0 0 1-.077-.016c-.023-.01-.043-.025-.061-.042a.23.23 0 0 1-.042-.063.2.2 0 0 1-.016-.077c0-.027.005-.053.016-.077a.2.2 0 0 1 .042-.064c.018-.019.038-.033.061-.044a.18.18 0 0 1 .077-.016c.027 0 .053.005.077.016s.046.025.064.044.033.039.044.064.017.05.017.077zm.687-.222v2.307h-.279v-2.307h.279zm1.514 1.341a.53.53 0 0 0-.028-.177c-.018-.054-.044-.101-.08-.139s-.077-.07-.127-.091a.44.44 0 0 0-.171-.033.43.43 0 0 0-.318.117c-.078.078-.125.185-.144.323h.868zm.225.744a.55.55 0 0 1-.124.11.79.79 0 0 1-.155.075.91.91 0 0 1-.169.044.99.99 0 0 1-.174.016.82.82 0 0 1-.304-.055.69.69 0 0 1-.24-.163.76.76 0 0 1-.157-.266 1.08 1.08 0 0 1-.056-.363c0-.111.017-.214.05-.31a.73.73 0 0 1 .147-.249.66.66 0 0 1 .233-.166.76.76 0 0 1 .31-.061c.095 0 .183.016.263.049a.61.61 0 0 1 .21.138c.059.061.106.134.139.222a.84.84 0 0 1 .05.301c0 .044-.005.073-.014.088s-.027.022-.053.022h-1.06a.94.94 0 0 0 .041.261.52.52 0 0 0 .103.186c.044.05.096.086.157.111a.55.55 0 0 0 .203.036.63.63 0 0 0 .18-.023c.05-.015.095-.034.132-.053l.091-.052c.025-.017.046-.025.064-.025a.06.06 0 0 1 .053.027l.078.102zm3.053-2.022v2.244h-.152c-.024 0-.044-.004-.061-.013a.15.15 0 0 1-.047-.042l-1.298-1.691.005.077.001.07v1.599h-.266v-2.244h.157a.16.16 0 0 1 .034.003c.009.001.018.004.025.008s.015.008.022.016l.023.025 1.298 1.69-.006-.078-.002-.074v-1.59h.266zm1.785.657v1.586h-.166c-.04 0-.065-.019-.075-.058l-.022-.171a.89.89 0 0 1-.232.185c-.086.047-.184.069-.294.069a.59.59 0 0 1-.23-.042c-.067-.028-.121-.07-.166-.122s-.079-.115-.102-.19a.83.83 0 0 1-.033-.246v-1.012h.279v1.012c0 .12.027.213.081.279s.139.099.252.099a.47.47 0 0 0 .23-.058.74.74 0 0 0 .199-.163v-1.168h.279zm.442 1.587v-1.586h.168c.04 0 .064.019.074.058l.02.163a.8.8 0 0 1 .197-.177c.073-.046.158-.069.254-.069a.37.37 0 0 1 .258.089.5.5 0 0 1 .144.241c.023-.057.052-.107.088-.149a.52.52 0 0 1 .122-.103c.045-.027.092-.047.142-.059a.65.65 0 0 1 .155-.019.57.57 0 0 1 .222.041c.066.026.121.065.166.116s.081.114.105.189a.83.83 0 0 1 .036.255v1.01h-.28v-1.01c0-.124-.027-.218-.081-.282s-.133-.097-.235-.097a.35.35 0 0 0-.132.025.3.3 0 0 0-.108.071c-.031.032-.056.071-.075.119a.44.44 0 0 0-.027.164v1.01h-.28v-1.01c0-.127-.026-.222-.077-.285s-.126-.094-.224-.094a.35.35 0 0 0-.191.056.62.62 0 0 0-.161.15v1.182h-.28zm2.855-.382a.45.45 0 0 0 .168.146.48.48 0 0 0 .202.042c.149 0 .264-.053.343-.158s.119-.263.119-.471c0-.194-.035-.337-.107-.427s-.17-.138-.301-.138c-.091 0-.17.021-.238.063s-.129.101-.186.177v.767zm0-.976c.067-.077.142-.139.225-.185a.6.6 0 0 1 .291-.069.58.58 0 0 1 .251.053.52.52 0 0 1 .191.155c.052.068.092.148.119.244a1.15 1.15 0 0 1 .042.324 1.23 1.23 0 0 1-.047.351c-.031.105-.077.196-.136.271a.62.62 0 0 1-.215.174.65.65 0 0 1-.285.061c-.104 0-.193-.019-.265-.058a.59.59 0 0 1-.186-.168l-.014.144c-.008.04-.032.059-.072.059h-.18v-2.307h.28v.949zm2.534.392a.53.53 0 0 0-.028-.177c-.018-.054-.044-.101-.08-.139s-.077-.07-.127-.091a.44.44 0 0 0-.171-.033.43.43 0 0 0-.318.117c-.078.078-.125.185-.144.323h.868zm.226.744a.57.57 0 0 1-.124.11.79.79 0 0 1-.155.075.91.91 0 0 1-.169.044.99.99 0 0 1-.174.016.82.82 0 0 1-.304-.055.69.69 0 0 1-.24-.163.76.76 0 0 1-.157-.266 1.08 1.08 0 0 1-.056-.363c0-.111.017-.214.05-.31a.73.73 0 0 1 .147-.249.66.66 0 0 1 .233-.166.76.76 0 0 1 .31-.061c.095 0 .183.016.263.049a.61.61 0 0 1 .21.138c.059.061.106.134.139.222a.84.84 0 0 1 .05.301c0 .044-.005.073-.014.088s-.027.022-.053.022h-1.06a.94.94 0 0 0 .041.261.52.52 0 0 0 .103.186c.044.05.096.086.157.111a.55.55 0 0 0 .204.036.63.63 0 0 0 .18-.023c.05-.015.095-.034.132-.053l.091-.052c.025-.017.047-.025.064-.025a.06.06 0 0 1 .053.027l.078.102zm.632-1.047a.71.71 0 0 1 .185-.254.4.4 0 0 1 .268-.092c.033 0 .065.004.096.011s.059.019.083.035l-.02.208c-.006.026-.022.039-.047.039a.32.32 0 0 1-.064-.009c-.028-.006-.06-.009-.095-.009a.39.39 0 0 0-.135.022.32.32 0 0 0-.105.066.48.48 0 0 0-.083.106.93.93 0 0 0-.066.144v1.002h-.28v-1.586h.16c.03 0 .051.006.063.017s.019.031.023.059l.019.241zm-23.707-.369a.59.59 0 0 1-1.007.417.59.59 0 0 1 .417-1.007.59.59 0 0 1 .59.59z"/><path d="M68.112 90.674h-2.041a1.02 1.02 0 0 1 .321-.681c.19-.178.44-.277.7-.277a1.02 1.02 0 0 1 1.02.958z"/></g><path d="M106.633 95.435H64.099v6.163h42.534v-6.163z" class="J"/><g class="L"><path d="M72.076 97.787a5.28 5.28 0 0 1-1.455 1.459 4.86 4.86 0 0 1 .655-.808c.244-.243.512-.462.8-.651z"/><path d="M70.621 97.787c.291.191.562.412.808.659s.466.516.655.808c-.576-.386-1.07-.882-1.455-1.459l-.008-.008z"/><path d="M72.379 98.518c-.68.135-1.381.135-2.061 0 .338-.074.684-.108 1.031-.101.346-.004.692.029 1.031.101z"/><use xlink:href="#B"/><path d="M75.629 97.787c-.387.575-.881 1.07-1.455 1.459a4.85 4.85 0 0 1 .655-.808 5.07 5.07 0 0 1 .8-.651z"/><path d="M74.174 97.787c.292.19.563.411.808.659s.47.515.659.808c-.576-.386-1.07-.882-1.455-1.459l-.012-.008z"/><path d="M75.932 98.518c-.68.135-1.381.135-2.061 0 .338-.074.684-.108 1.031-.101.346-.004.692.029 1.031.101z"/><use xlink:href="#B" x="3.552"/><path d="M79.181 97.787c-.19.292-.411.563-.659.808s-.515.47-.808.659c.19-.292.411-.563.659-.808s.517-.468.808-.659z"/><path d="M77.722 97.787c.291.191.562.412.808.659s.469.516.659.808c-.292-.19-.563-.411-.808-.659s-.468-.517-.659-.808z"/><path d="M79.48 98.518c-.679.135-1.378.135-2.057 0 .338-.074.684-.108 1.031-.101.345-.004.689.03 1.026.101z"/><path d="M78.453 97.488c.135.679.135 1.378 0 2.057a4.44 4.44 0 0 1-.101-1.026 4.69 4.69 0 0 1 .101-1.031zm4.276.299a5.29 5.29 0 0 1-1.455 1.459 4.66 4.66 0 0 1 .659-.808 5.03 5.03 0 0 1 .796-.651z"/><path d="M81.274 97.787c.291.191.562.412.808.659a4.85 4.85 0 0 1 .655.808c-.573-.389-1.067-.884-1.455-1.459l-.008-.008z"/><path d="M83.032 98.518c-.339.07-.684.103-1.031.101a4.89 4.89 0 0 1-1.026-.101c.337-.074.681-.108 1.026-.101.346-.004.692.029 1.031.101z"/><use xlink:href="#B" x="10.653"/><path d="M67.78 97.852v.748h-.206v-.748a.48.48 0 0 0-.124-.368.48.48 0 0 0-.355-.157.48.48 0 0 0-.355.157.48.48 0 0 0-.124.368v.748h-.214v-.748a.69.69 0 0 1 .691-.691.69.69 0 0 1 .691.691h-.004z"/><path d="M66.132 98.325v1.592h1.92v-1.592h-1.92zm1.119 1.168h-.339l.081-.384c-.025-.015-.046-.036-.06-.062s-.021-.054-.021-.084a.17.17 0 0 1 .17-.17.17.17 0 0 1 .17.17c.001.029-.007.058-.021.084s-.035.047-.06.062l.081.384z"/></g><path d="M78.154 81.751v-2.78c0-.07.028-.136.077-.186a.26.26 0 0 1 .186-.077c.07 0 .136.028.186.077a.26.26 0 0 1 .077.186v2.518h1.277c.07 0 .136.028.186.077a.26.26 0 0 1 .077.186c0 .07-.028.137-.077.186s-.116.077-.186.077h-1.54a.26.26 0 0 1-.101-.019c-.032-.013-.061-.032-.086-.057a.26.26 0 0 1-.076-.187zm5.076-2.631c.306.322.477.75.477 1.194s-.171.872-.477 1.194a1.55 1.55 0 0 1-.511.37 1.54 1.54 0 0 1-.616.135 1.59 1.59 0 0 1-.63-.133c-.199-.087-.378-.213-.526-.372-.302-.325-.469-.751-.469-1.194s.168-.87.469-1.194c.147-.159.326-.286.525-.373s.414-.132.631-.132a1.53 1.53 0 0 1 1.127.505zm-.061 1.192a1.21 1.21 0 0 0-.323-.808c-.094-.105-.208-.189-.336-.246a1.02 1.02 0 0 0-1.171.246 1.21 1.21 0 0 0-.323.824 1.22 1.22 0 0 0 .323.825c.094.107.21.192.34.251a1 1 0 0 0 .826 0c.13-.059.246-.144.34-.251a1.21 1.21 0 0 0 .323-.841zm1.322.009a1.72 1.72 0 0 1 1.742-1.705c.389-.001.768.129 1.075.368.036.018.067.043.092.075s.042.068.051.107.008.08-.001.119-.027.075-.052.107-.057.056-.093.073-.076.026-.116.026a.27.27 0 0 1-.115-.027c-.036-.017-.067-.043-.092-.075a1.25 1.25 0 0 0-.748-.255c-.157-.002-.313.027-.459.086a1.17 1.17 0 0 0-.389.258 1.13 1.13 0 0 0-.356.808c.001.152.033.302.094.441a1.11 1.11 0 0 0 .262.367 1.17 1.17 0 0 0 .849.348c.228-.003.451-.066.647-.182v-.647h-.675a.27.27 0 0 1-.267-.267c-.001-.035.006-.07.019-.103s.033-.062.058-.087a.27.27 0 0 1 .087-.058c.033-.014.068-.02.103-.019h.938a.27.27 0 0 1 .105.018c.034.013.064.032.089.057s.046.055.06.087.021.068.021.104v1.043c.002.027.002.054 0 .081-.016.046-.048.086-.089.113a1.74 1.74 0 0 1-1.071.368 1.72 1.72 0 0 1-1.215-.454c-.33-.304-.528-.726-.551-1.175zm4.025-1.35c-.001-.034.005-.069.017-.101s.031-.061.056-.086.053-.044.085-.057.066-.02.101-.019c.07 0 .136.028.186.077a.26.26 0 0 1 .077.186v2.78c0 .07-.028.137-.077.186s-.116.077-.186.077c-.034.001-.069-.006-.101-.019s-.061-.032-.085-.057-.043-.054-.056-.086-.018-.066-.017-.101v-2.78zm1.924 2.78c.005.036.001.073-.009.108a.26.26 0 0 1-.247.183.26.26 0 0 1-.247-.183c-.011-.035-.014-.072-.009-.108v-2.74c-.003-.055.012-.109.043-.155s.075-.08.127-.098.108-.019.16-.003a.25.25 0 0 1 .13.094l1.528 2.109v-1.944c0-.068.027-.132.075-.18s.112-.075.18-.075a.26.26 0 0 1 .181.074c.048.047.076.112.077.18v2.74a.26.26 0 0 1-.076.184c-.049.049-.114.077-.183.078-.037-.001-.074-.01-.108-.027s-.063-.041-.086-.07c-.011-.006-.02-.016-.024-.028l-1.511-2.093v1.952z" class="F"/><path d="M106.487 105.569H64.205v6.162h42.282v-6.162z" fill="#343a40"/><g class="B"><path d="M81.763 108.996v-1.39c-.001-.017.002-.035.009-.051s.016-.031.028-.043a.14.14 0 0 1 .043-.029c.016-.007.033-.01.05-.01.035 0 .069.014.094.039s.039.059.039.094v1.261h.639a.13.13 0 0 1 .091.038c.024.024.038.057.038.091s-.014.068-.038.093-.057.04-.092.041h-.772c-.017 0-.034-.004-.05-.011s-.03-.016-.043-.029-.022-.027-.028-.043-.009-.033-.009-.051z"/><path d="M84.301 107.679a.87.87 0 0 1 .246.606c0 .227-.088.444-.246.606a.77.77 0 0 1-.566.255c-.108-.001-.216-.025-.315-.069a.8.8 0 0 1-.263-.186.88.88 0 0 1 0-1.212.81.81 0 0 1 .578-.251c.106.001.212.024.309.067a.78.78 0 0 1 .257.184zm-.032.598a.61.61 0 0 0-.162-.404c-.047-.052-.104-.095-.168-.124a.51.51 0 0 0-.204-.046.54.54 0 0 0-.405.17c-.101.111-.157.255-.158.404a.59.59 0 0 0 .158.404.52.52 0 0 0 .184.129.54.54 0 0 0 .221.041.51.51 0 0 0 .204-.046.5.5 0 0 0 .168-.124.6.6 0 0 0 .162-.404zm.683.004a.86.86 0 0 1 .069-.329c.044-.104.109-.198.189-.277a.86.86 0 0 1 .281-.184.85.85 0 0 1 .33-.062c.195 0 .386.064.542.181.028.023.046.056.051.092a.14.14 0 0 1-.027.102c-.011.014-.025.026-.04.035s-.033.014-.05.015-.036.001-.053-.004-.033-.014-.047-.025a.63.63 0 0 0-.376-.13.58.58 0 0 0-.404.174.56.56 0 0 0-.173.404c0 .075.015.151.045.22a.56.56 0 0 0 .128.184.58.58 0 0 0 .404.174c.114-.001.225-.032.323-.089v-.323h-.335a.14.14 0 0 1-.096-.042c-.026-.025-.04-.059-.041-.096.001-.017.005-.034.012-.05s.017-.031.03-.043.028-.021.044-.027.034-.009.051-.009h.469c.017 0 .035.002.051.009s.031.015.044.027.023.027.03.043.011.033.012.05v.526c.002.013.002.027 0 .04a.12.12 0 0 1-.044.057c-.127.1-.279.162-.439.181a.87.87 0 0 1-.967-.844l-.012.02zm1.988-.675c-.001-.017.002-.035.009-.051s.016-.031.028-.043a.14.14 0 0 1 .042-.029c.016-.007.033-.01.05-.01.035 0 .069.014.094.039s.039.059.039.094v1.39c0 .036-.014.07-.039.095s-.059.039-.094.039c-.017 0-.035-.004-.05-.011s-.03-.016-.042-.029-.022-.027-.028-.043-.009-.033-.009-.051v-1.39zm.966 1.39c0 .035-.014.068-.038.093s-.057.04-.092.041c-.017 0-.034-.004-.05-.011s-.03-.016-.043-.029-.022-.027-.028-.043-.009-.033-.009-.051v-1.37c-.001-.021.003-.042.012-.061s.023-.036.04-.048c.028-.019.061-.027.095-.022s.063.024.083.05l.764 1.059v-.974a.13.13 0 0 1 .129-.129c.034.001.066.015.09.039s.038.056.039.09V109a.13.13 0 0 1-.038.093c-.025.025-.057.04-.092.041-.019-.001-.037-.005-.054-.014s-.032-.02-.043-.035l-.756-1.047-.012.958z"/></g><path d="M85.368 72.303a17.18 17.18 0 0 0 17.175-17.175 17.18 17.18 0 0 0-17.175-17.175 17.18 17.18 0 0 0-17.175 17.176 17.18 17.18 0 0 0 17.176 17.175z" class="L"/><path d="M95.334 69.134l-1.091.723a17.21 17.21 0 0 1-2.829 1.362l-.699.251-1.617.445-1.479.259-1.572-2.493-.917-1.734c-1.039-2.105-2.134-4.938-1.119-5.71l.057-.04.081-.044.053-.024a.93.93 0 0 1 .295-.077 1.67 1.67 0 0 1 .428 0c.737.118 1.448.367 2.097.736l.594.315.081.044c1.721.962 4.676 3.419 7.638 5.989z" class="D"/><path d="M95.94 68.661l-.606.453-1.091.723a17.21 17.21 0 0 1-2.829 1.362l-.699.251-1.617.445-1.479.259-.299.036-2.562-4.32-.105-.198-.57-1.212a8.32 8.32 0 0 1-.315-.808l-.158-.497-.105-.404a4 4 0 0 1-.073-.404 3.56 3.56 0 0 1-.048-.905c.011-.219.059-.435.141-.639.037-.094.085-.183.141-.267l.085-.113a1.25 1.25 0 0 1 .101-.105.8.8 0 0 1 .109-.089l.048-.032.057-.04.081-.044.053-.024a1.61 1.61 0 0 1 .259-.093 3.74 3.74 0 0 1 2.11.271c.383.131.757.286 1.12.465a17.18 17.18 0 0 1 2.053 1.212c1.831 1.2 4.041 2.942 6.199 4.72z" class="E"/><path d="M88.403 65.004l-.299-.271-.109-.089-.081-.061a1.04 1.04 0 0 0-.137-.093l-.137-.089-.081-.044-.053-.024-.17-.077c.04.097.086.192.137.283.171.294.377.565.614.808l.271.246.222.174a2.77 2.77 0 0 0 .566.319c-.177-.405-.429-.773-.744-1.083zm0 0l-.299-.271-.109-.089-.081-.061a1.04 1.04 0 0 0-.137-.093l-.137-.089-.081-.044-.053-.024-.17-.077c.04.097.086.192.137.283.171.294.377.565.614.808l.271.246.222.174a2.77 2.77 0 0 0 .566.319c-.177-.405-.429-.773-.744-1.083z" class="B"/><path opacity=".1" d="M94.247 69.838a17.21 17.21 0 0 1-2.829 1.362l-.699.251-1.617.445-1.479.259-.299.036-2.562-4.32-.105-.198-.57-1.212a8.34 8.34 0 0 1-.315-.808l-.158-.497-.105-.404a4 4 0 0 1-.073-.404 3.98 3.98 0 0 1-.049-.905 1.98 1.98 0 0 1 .142-.639c.037-.094.085-.183.141-.267l.085-.113a1.25 1.25 0 0 1 .101-.105c.034-.033.07-.062.109-.089l.049-.032.057-.04.081-.044.052-.024c.085-.037.173-.067.263-.089a1.92 1.92 0 0 1 .36-.057l.089.073 1.431 1.212 1.16.97.554.465 6.187 5.177z" class="I"/><path d="M90.731 71.45l-1.617.444-1.479.259-.299.036c-2.528.285-5.088.01-7.497-.808h-.044-.04l-.194-.069c-1.698-.62-3.289-1.504-4.712-2.619l1.342-2.239.845-1.265c1.41-2.021 2.384-2.829 3.144-3.233l.141-.069a1.22 1.22 0 0 1 .166-.077c.101-.044.198-.077.291-.109a8.42 8.42 0 0 1 3.205-.311 4.85 4.85 0 0 1 2.586.873 2.15 2.15 0 0 1 .461.517l.404.691.145.259.497.954c.013.019.022.039.028.061l.243.505.239.517c.801 1.811 1.501 3.665 2.097 5.553.02.036.032.081.049.129z" class="E"/><path d="M84.867 70.751a3.46 3.46 0 0 0-1.289.226 3.38 3.38 0 0 0 1.289.226 3.45 3.45 0 0 0 1.293-.226 3.45 3.45 0 0 0-1.293-.226zm-7.339-5.884c-.061.028-.117.065-.174.097s-.113.069-.166.109c-.026.014-.051.032-.073.052l-.085.061c-.129.101-.246.21-.364.319-.317.308-.573.673-.756 1.075.1-.041.197-.088.291-.142a3.88 3.88 0 0 0 .784-.61 3.43 3.43 0 0 0 .752-1.075l-.21.113zm10.819.38l-.246-.505-.109-.089-.081-.061c-.043-.035-.089-.066-.137-.093l-.137-.089-.081-.044-.052-.028-.17-.077c.04.097.086.191.137.283a4.1 4.1 0 0 0 .614.808l.271.247.222.174c-.069-.194-.15-.364-.23-.533v.008zm0 0l-.246-.505-.109-.089-.081-.061c-.043-.035-.089-.066-.137-.093l-.137-.089-.081-.044-.052-.028-.17-.077c.04.097.086.191.137.283a4.1 4.1 0 0 0 .614.808l.271.247.222.174c-.069-.194-.15-.364-.23-.533v.008z" class="B"/><path d="M81.399 64.798c-.17 1.192-.449 2.366-.832 3.508l-1.026 2.982a17.22 17.22 0 0 1-4.692-2.595l-.986-.808 1.726-2.211c1.907-2.348 3.54-3.637 4.599-3.714h.121c.889-.028 1.325.901 1.091 2.837z" class="D"/><path d="M81.626 65.137a17.22 17.22 0 0 1-.404 2.166 27.1 27.1 0 0 1-1.035 3.019l-.428 1.047h-.04l-.194-.069c-1.685-.62-3.263-1.499-4.676-2.607l-.986-.808-.327-.303a29.4 29.4 0 0 1 3.475-3.811c1.56-1.374 2.623-1.924 3.338-1.956h.146c1.224.045 1.297 1.806 1.131 3.322z" class="E"/><path d="M77.528 64.859c-.061.028-.117.065-.174.097s-.113.069-.166.109a.34.34 0 0 0-.073.052l-.093.073c-.129.101-.247.21-.364.319a3.56 3.56 0 0 0-.756 1.075 2.41 2.41 0 0 0 .291-.141c.286-.169.55-.374.784-.61a3.43 3.43 0 0 0 .752-1.075l-.202.101z" class="B"/><path d="M80.203 70.323l-.384 1.051h-.044-.041l.441-1.034.028-.016z" class="C"/><path d="M85.259 67.922c-1.823.065-4.288-3.184-5.043-5.573-.049-.166.485-1.677 1.047-3.548l.917-3.597c.049-.242 7.076 3.273 7.076 3.273a19.22 19.22 0 0 0-1.617 4.405 2.7 2.7 0 0 0-.044.497v.081c-.036.966-.574 4.405-2.336 4.461z" class="D"/><path d="M82.632 55.337c-.053 2.073.239 7.157 4.187 8.03.252.058.509.094.768.105a.68.68 0 0 0 0-.081c0-.166.013-.333.04-.497.356-1.53.899-3.011 1.617-4.409l-6.612-3.148z" class="C"/><path d="M80.91 47.424c-.76 2.7.808 10.427 2.768 12.124 2.829 2.449 7.355 2.59 9.416-.78 1.996-3.269-.242-13.304-2.425-14.827-3.172-2.259-8.628-.509-9.76 3.483z" class="D"/><g class="C"><path d="M87.68 52.303s-.036.036-.028.057c.137.513.21 1.123-.214 1.406v.028c.562-.218.457-1.026.242-1.491z"/><path d="M87.09 51.875c-.849.137-.513 1.819.271 1.693s.42-1.81-.271-1.693zm3.576-.171c0-.02.044 0 .049.036.089.525.275 1.111.78 1.192 0 0 .02.028 0 .028-.59.032-.833-.748-.829-1.257z"/><path d="M91.014 51.066c.808-.226 1.212 1.439.461 1.653s-1.144-1.459-.461-1.653zm-4.716-.016c.218-.105.404-.234.61-.356s.428-.226.55-.481a.36.36 0 0 0-.141-.404c-.144-.07-.304-.099-.464-.085s-.312.071-.441.165c-.294.147-.522.398-.643.703-.013.07-.008.141.016.208s.064.126.118.173.118.078.188.091a.41.41 0 0 0 .208-.015zm5.346-.668a6.87 6.87 0 0 1-.703 0 1.17 1.17 0 0 1-.723-.125.37.37 0 0 1-.122-.2.36.36 0 0 1 .025-.233c.087-.133.208-.24.35-.311a.9.9 0 0 1 .459-.093 1.33 1.33 0 0 1 .913.271.41.41 0 0 1 .113.187c.02.071.019.147-.001.219s-.06.136-.115.186-.122.084-.195.099z"/><path d="M88.447 55.345a1.79 1.79 0 0 0 1.342.554c.218-.002.434-.035.643-.097a.56.56 0 0 0 .117-.036l.113-.04a.13.13 0 0 0 .063-.055c.014-.025.021-.053.018-.082a.2.2 0 0 0 0-.052v-.045c-.069-.404-.226-1.006-.226-1.006.158.044.974.23.921.024a27.29 27.29 0 0 0-1.754-5.233c-.014-.021-.019-.025-.025-.028-.025-.005-.032-.004-.038-.002-.021.014-.025.019-.028.025-.005.025-.004.031-.002.038.364 1.665 1.018 3.253 1.415 4.922a3.19 3.19 0 0 0-.889-.089c-.053.028.331 1.16.347 1.342v.02a2.51 2.51 0 0 1-1.948-.206c-.073-.028-.109.012-.069.048zm-7.836-1.875c2.049.101 3.067-2.364 2.546-4.32 0 0 5.46.61 5.63-3.766.396.584.93 1.063 1.554 1.392s1.321.499 2.027.495l.642 1.596c.554-.174 1.115-1.774-.279-2.99 0 0-.137-2.174-1.774-3.447a2.96 2.96 0 0 0-1.548-.666c-.57-.067-1.147.032-1.661.286a4.5 4.5 0 0 0-3.302-.744 3.85 3.85 0 0 0-1.653.736c-.484.373-.874.856-1.135 1.41 0 0-2.683.574-3.104 2.502a3.97 3.97 0 0 0 .598 3.188s-.659.764-.283 2.392c.242 1.031 1.123 1.903 1.742 1.936z"/><path d="M88.658 44.996c.049.353.06.711.032 1.067a4.26 4.26 0 0 1-.174 1.039 2.76 2.76 0 0 1-1.212 1.616 4.49 4.49 0 0 1-1.996.546h-1.063c-.356 0-.711-.065-1.071-.089l1.059.21c.356.069.719.048 1.083.077.739.006 1.467-.175 2.118-.525.642-.395 1.104-1.026 1.285-1.758.166-.721.145-1.472-.061-2.182zm2.857 2.469a5.72 5.72 0 0 1-1.669-.857 3.31 3.31 0 0 1-.651-.651 4.16 4.16 0 0 1-.477-.808 2.4 2.4 0 0 0 .315.925 2.52 2.52 0 0 0 .659.744 3.15 3.15 0 0 0 .869.469c.306.111.628.171.954.178z"/></g><path d="M82.709 53.709s-1.859-2.425-2.97-1.762.356 4.251 1.713 4.692a1.36 1.36 0 0 0 1.068-.021 1.36 1.36 0 0 0 .722-.787l-.534-2.122z" class="D"/><path d="M80.187 52.969v.036c.954.34 1.483 1.188 1.863 2.073-.058-.091-.135-.169-.226-.228s-.194-.097-.301-.112a.75.75 0 0 0-.6.182c-.01.022-.009.028-.006.033.018.015.024.016.03.015.163-.058.34-.065.507-.02s.316.141.427.274c.181.225.338.469.469.727.048.081.198.028.162-.065v-.024c-.04-1.2-1.039-2.833-2.324-2.894z" class="C"/><g opacity=".2" class="I"><path d="M85.166 54.432c-.002.033-.017.064-.041.086s-.056.035-.089.035-.063-.018-.085-.042-.035-.055-.036-.088.013-.065.037-.089.055-.037.089-.037a.12.12 0 0 1 .088.037c.023.024.037.055.037.089v.008zm2.615-.008c-.005.029-.021.055-.043.074s-.051.029-.08.029-.058-.01-.08-.029-.038-.045-.043-.074c.001-.016.004-.032.011-.047s.017-.028.029-.039.026-.019.042-.025a.12.12 0 0 1 .048-.007c.031.002.059.015.081.037s.034.05.036.081zm-.97.869c-.002.033-.017.064-.041.086a.13.13 0 0 1-.089.035.12.12 0 0 1-.047-.011c-.015-.007-.028-.017-.039-.029s-.019-.026-.025-.042a.12.12 0 0 1-.007-.048c.001-.016.004-.033.011-.048s.016-.029.028-.04.026-.02.042-.026.032-.008.048-.008.032.004.047.011.028.017.039.029.019.026.025.042a.1.1 0 0 1 .006.048zm-1.532-1.879c-.002.032-.017.063-.041.085s-.056.033-.088.032c-.016-.001-.032-.004-.047-.011s-.028-.017-.039-.029-.019-.026-.025-.042a.1.1 0 0 1-.006-.048c.002-.016-.003-.037.002-.054a.13.13 0 0 1 .025-.048c.012-.014.026-.025.043-.033s.035-.012.053-.012.037.004.053.012.031.019.043.033a.13.13 0 0 1 .025.048c.005.017.005.036.002.054v.012zm1.192.768c-.001.016-.004.033-.011.048s-.016.029-.028.04-.026.02-.042.026-.032.008-.048.008-.032-.004-.047-.011-.028-.017-.039-.029-.019-.026-.025-.042a.12.12 0 0 1-.007-.048.13.13 0 0 1 .129-.121c.016.001.032.004.047.011a.12.12 0 0 1 .07.118zm6.458-1.536c0 .016-.004.032-.011.047s-.017.028-.029.039a.12.12 0 0 1-.09.031c-.032-.002-.063-.017-.085-.041a.12.12 0 0 1-.032-.088c.002-.032.02-.055.043-.074s.051-.029.08-.029.058.01.08.029.038.045.043.074v.012zm-.994.663c-.001.016-.004.032-.011.047s-.017.028-.029.039-.026.019-.042.025-.032.008-.048.006c-.033-.002-.064-.017-.086-.041s-.035-.056-.035-.089c.001-.016.004-.032.011-.047s.017-.028.029-.039a.12.12 0 0 1 .09-.031.13.13 0 0 1 .121.129zm.21.828c-.002.032-.017.063-.041.085a.12.12 0 0 1-.088.032c-.016-.001-.032-.004-.047-.011s-.028-.017-.039-.029-.019-.026-.025-.042a.12.12 0 0 1-.006-.048c.005-.029.02-.055.043-.074s.051-.029.08-.029.058.01.08.029.038.045.043.074v.012zm.889-.533c-.001.016-.004.032-.011.047s-.017.028-.029.039-.026.019-.042.025-.032.008-.048.006-.037.003-.054-.002a.13.13 0 0 1-.048-.025c-.014-.012-.025-.026-.033-.043s-.012-.035-.012-.053.004-.036.012-.053.019-.031.033-.043a.13.13 0 0 1 .048-.025c.017-.005.036-.005.054-.002a.13.13 0 0 1 .129.129z"/></g><path d="M63.351 162.969c1.127.404 34.484 1.067 35.737.299.15-.077.691-11.114.691-11.114-.04-.157.518-1.212 1.37-2.695 2.376-4.151 7.028-11.587 7.028-11.587l-19.802-5.985-8.131 16.291-2.073 4.154s-4.546 1.778-8.515 3.552c-2.425 1.087-4.571 2.082-5.068 2.453-1.277.995-2.36 4.236-1.237 4.632z" class="D"/><path d="M63.351 162.969c1.127.404 34.484 1.066 35.737.299.15-.077.691-11.114.691-11.114-.04-.158.517-1.212 1.37-2.695l-20.901-1.282-2.073 4.155s-4.546 1.778-8.515 3.552c-2.425 1.087-4.571 2.081-5.068 2.453-1.281.994-2.364 4.236-1.241 4.632z" class="B"/><path d="M63.214 163.094c1.16.404 34.557.982 35.846.198.489-.295 1.079-5.435.719-11.138l-21.532-.343s-12.471 5.512-13.793 6.522-2.401 4.349-1.241 4.761z" class="E"/><path opacity=".1" d="M99.06 163.296c-.473.283-5.217.404-11.114.404l11.316-11.538h.525c.352 5.694-.238 10.839-.727 11.134z" class="I"/><g class="F"><path d="M63.715 161.764c5.601-.04 28.196.32 33.737.708.044 0 .044.032 0 .032-5.553.162-28.143-.38-33.741-.647-.117-.004-.113-.093.004-.093zm2.91-4.595c.623-.006 1.24.118 1.813.364s1.088.607 1.513 1.063c.779.809 1.213 1.888 1.212 3.011 0 .032-.065.032-.069 0-.171-1.11-.697-2.134-1.498-2.921s-1.835-1.293-2.948-1.444c-.01.003-.02.003-.029-.002s-.016-.012-.019-.022-.002-.02.002-.029.013-.016.022-.02zm9.84-4.825c2.239 0 4.825.841 6.187 2.7.053.069-.052.145-.117.109a30.87 30.87 0 0 0-6.114-2.534c-.031-.011-.058-.033-.075-.061s-.023-.062-.018-.095a.14.14 0 0 1 .047-.084c.025-.022.057-.034.09-.035zm-1.725.643c2.239 0 4.825.845 6.187 2.7.053.072-.052.145-.117.109a31.32 31.32 0 0 0-6.115-2.534c-.031-.011-.058-.033-.075-.061s-.023-.062-.018-.095.022-.063.047-.084.057-.034.09-.035zm-1.742.646c2.239 0 4.825.841 6.187 2.7.052.073-.053.145-.117.109a30.88 30.88 0 0 0-6.115-2.534c-.031-.011-.058-.033-.075-.061s-.023-.062-.018-.095a.14.14 0 0 1 .047-.084c.025-.022.057-.034.09-.035zm-1.742.643c2.239 0 4.825.845 6.187 2.7.053.072-.052.145-.117.113a31.11 31.11 0 0 0-6.115-2.538c-.031-.011-.058-.033-.075-.061s-.023-.062-.018-.095.022-.063.047-.084.057-.034.09-.035zm24.858 2.853c2.514.049 2.425 3.957-.077 3.904s-2.441-3.956.077-3.904z"/><path d="M74.283 149.608c1.184 1.584 3.007 2.595 4.587 3.726.037.022.078.036.121.038a.27.27 0 0 0 .125-.021c.04-.017.074-.043.102-.076s.046-.073.056-.115c.009.002.018.002.027 0s.017-.007.024-.012.013-.013.016-.022.006-.017.005-.026c-.129-2.059-.798-4.048-1.94-5.767-.683-.99-2.097-1.932-3.233-1.01s-.582 2.364.109 3.285zm-.073-1.855c.267-2.425 2.425-.525 2.906.223a12.71 12.71 0 0 1 .808 1.527 35.04 35.04 0 0 1 1.212 3.342l-2.287-1.713c-.93-.687-2.784-2.037-2.639-3.379z"/><path d="M87.328 151.807c-.15-1.467-1.815-1.811-2.999-1.617a11.75 11.75 0 0 0-5.468 2.664c-.008.005-.014.012-.018.02s-.007.017-.007.026.002.018.007.026.01.015.018.021a.27.27 0 0 0-.037.118c-.003.042.003.084.019.123a.28.28 0 0 0 .071.102c.031.028.069.049.109.061 1.912.331 3.916.921 5.872.654 1.144-.137 2.574-.812 2.433-2.198zm-5.298 1.471l-2.829-.428 3.233-1.488a12.91 12.91 0 0 1 1.645-.505c.865-.186 3.746 0 2.198 1.916-.857 1.046-3.124.671-4.247.505zm20.623-4.038l-23.484-3.556s11.287-22.502 18.275-34.71c3.888-6.79 14.517-7.121 19.685 1.01 6.907 10.867 12.266 21.051 15.337 26.692l5.331.457-1.152 8.705-17.705 3.965c-6.781.808-11.542-11.263-11.651-11.057l-4.635 8.494z"/></g><path d="M107.179 140.798c.667-1.366 1.188-2.828 1.782-4.219l1.722-4.069 3.463-8.232 1.79-4.68c.004-.007.01-.012.017-.015s.015-.003.022-.001.014.007.018.014.005.014.004.022l-1.423 4.413.404-.752 1.156-2.02c.008-.012.011-.014.015-.016.014-.001.018 0 .021.002.01.011.011.014.011.018-.002.014-.004.017-.006.02l-1.096 1.996-.585.982a103.21 103.21 0 0 1-4.89 12.052l-2.369 4.53c-.024.048-.097.004-.056-.045zm-5.052 4.268c1.132-1.746 3.831-7.036 4.797-8.863 1.952-3.697 3.738-7.472 5.432-11.295.953-2.162 1.847-4.344 2.732-6.535h.024a123.05 123.05 0 0 1-4.636 11.603c-1.721 3.795-7.274 14.019-8.276 15.126-.036.049-.101.008-.073-.036zm14.581-23.771l6.123 10.811 3.071 5.48 1.439 2.582a4.85 4.85 0 0 0 1.855 1.924 14.48 14.48 0 0 0 2.946 1.03l3.423 1.006c.01.004.019.011.025.021s.006.021.003.032-.01.02-.02.025-.022.006-.032.003l-3.084-.764c-.946-.201-1.881-.452-2.801-.751-.812-.274-1.531-.771-2.073-1.435-.551-.767-1.037-1.578-1.455-2.425l-6.033-11.166-3.407-6.361c-.004-.012.012-.04.02-.012zm-13.522 24.652c-1.406-.259-2.849-.38-4.268-.562l-4.268-.553c-2.829-.368-12.5-1.908-13.227-2.15-.01-.003-.019-.009-.025-.018s-.01-.018-.01-.029.003-.02.01-.029a.05.05 0 0 1 .025-.017c.691-.02 7.016.808 8.438 1.03 2.829.404 5.658.922 8.487 1.399l2.424.432c.809.141 1.617.315 2.425.404.012.002.024.008.031.018s.011.022.01.035-.008.023-.018.031-.023.011-.035.009z" class="K"/><path d="M88.322 167.996c.404-1.119 21.694-26.822 23.092-27.275.158-.06 8.871 6.729 8.871 6.729.351.509 17.608-2.34 17.608-2.34l-.728 20.611-31.118-2.021s-4.312 2.291-8.244 4.138c-2.425 1.148-4.559 2.106-5.165 2.235-1.588.332-4.748-.966-4.316-2.077z" class="D"/><path d="M92.63 170.073c.606-.125 2.744-1.087 5.165-2.234l8.244-4.139 6.923.449 11.619-17.018c-2.397.319-4.183.493-4.296.332l-8.871-6.729c-1.398.452-22.663 26.151-23.092 27.27s2.728 2.405 4.308 2.069z" class="B"/><path d="M88.136 168.02c.449-1.143 21.823-26.826 23.242-27.29.541-.182 4.821 2.727 8.891 6.72l-13.789 16.541s-12.314 5.852-13.943 6.195-4.846-1.018-4.401-2.166z" class="E"/><g class="F"><path d="M89.47 168.509c3.686-4.219 18.157-21.576 21.479-26.026.029-.036 0-.056-.024-.02-3.746 4.098-18.077 21.573-21.524 25.986-.073.101-.004.149.069.06z"/><path d="M94.853 169.301a4.5 4.5 0 0 0 .907-1.611 4.51 4.51 0 0 0 .184-1.84 4.38 4.38 0 0 0-1.499-2.873c-.028 0-.065.028-.044.052.733.854 1.169 1.923 1.242 3.047a5.19 5.19 0 0 1-.838 3.181c-.002.007-.002.014 0 .02s.005.013.011.018.011.007.018.009.014 0 .02-.003zm10.087-4.32c1.459-1.701 2.51-4.207 1.992-6.466-.02-.085-.141-.056-.157 0a31.11 31.11 0 0 1-2.069 6.288c-.024.032-.034.071-.029.109s.026.074.057.098a.15.15 0 0 0 .109.028c.038-.005.073-.026.097-.057zm-1.625.901c1.459-1.705 2.51-4.207 1.993-6.466-.021-.089-.146-.056-.162 0-.459 2.17-1.153 4.284-2.069 6.305-.022.031-.03.07-.022.108s.029.07.06.092.071.029.108.022a.14.14 0 0 0 .092-.061zm-1.624.898c1.455-1.702 2.509-4.207 1.992-6.466-.02-.085-.145-.057-.162 0a30.74 30.74 0 0 1-2.069 6.288c-.011.016-.02.034-.025.052s-.005.039-.003.058.01.038.02.055.023.032.039.043a.14.14 0 0 0 .052.025c.019.005.039.006.058.003s.038-.009.055-.019.031-.023.043-.039zm-1.625.901c1.455-1.705 2.51-4.207 1.992-6.466-.02-.089-.145-.057-.161 0a30.85 30.85 0 0 1-2.069 6.284c-.024.032-.035.072-.029.111a.15.15 0 0 0 .058.099c.032.024.072.035.111.03s.075-.026.099-.058zm14.06-20.7c1.616-1.935-1.407-4.445-3.011-2.489s1.406 4.429 3.011 2.489z"/><path d="M107.987 170.667c1.447-.266 1.653-1.956 1.35-3.119a11.75 11.75 0 0 0-3.104-5.23c-.006-.007-.013-.012-.021-.016s-.016-.006-.025-.006-.018.002-.026.006-.015.009-.021.016c-.038-.021-.081-.033-.125-.034a.28.28 0 0 0-.127.027c-.04.019-.074.047-.1.082s-.045.076-.052.119c-.174 1.936-.598 3.981-.17 5.908.263 1.136 1.055 2.506 2.421 2.247zm-1.903-5.156l.194-2.853 1.745 3.095a12.57 12.57 0 0 1 .639 1.597c.259.848.291 3.738-1.726 2.348-1.107-.744-.925-3.052-.848-4.187h-.004z"/><path d="M109.159 157.505c-1.479 1.309-2.336 3.213-3.334 4.878-.021.039-.033.083-.034.127s.01.089.03.129a.28.28 0 0 0 .087.1c.036.026.079.042.123.048-.001.009.001.018.004.026s.008.016.015.022.014.011.023.014a.05.05 0 0 0 .027.002 11.72 11.72 0 0 0 5.585-2.424c.929-.76 1.754-2.247.739-3.318-.957-1.007-2.416-.368-3.265.396zm1.847-.222c2.449.064.723 2.38 0 2.913-.465.337-.951.643-1.455.918-1.043.582-2.146 1.002-3.233 1.475l1.52-2.425c.622-.958 1.818-2.93 3.168-2.881zm16.852-17.398s26.672-3.58 35.406-1.232c12.176 3.281 13.57 17.906 4.195 23.475-11.882 7.052-53.095 3.12-53.095 3.12l11.502-19.398s17.268-3.233 32.734-1.968l-31.215 3.872.473-7.869z"/></g><path d="M125.07 147.163a.9.9 0 0 0 .028-.105c0-.028 0-.056.02-.085l.061-.198a3.3 3.3 0 0 1 .145-.404l.174-.404c.065-.125.14-.245.222-.36h.033.02.028c.009-.002.019-.002.028 0 1.896-.303 14.755-1.762 16.667-1.915s3.855-.271 5.783-.364c3.846-.201 7.701-.186 11.546.045.359.02.719.052 1.079.08.076-.024.161-.036.238-.052.19-.041.372-.085.562-.113.351-.061.703-.101 1.055-.146.731-.089 1.466-.141 2.194-.258.044 0 .061.064 0 .072-.736.146-1.463.348-2.199.493l-.638.118c1.406.141 2.809.323 4.211.525.044 0 .044.081 0 .077-1.908-.206-3.835-.307-5.755-.356s-3.811-.081-5.718-.044c-3.856.076-7.715.287-11.566.561-2.158.154-15.276 1.681-17.438 1.686h-.025a1.34 1.34 0 0 1-.068.161l-.198.372c-.069.121-.134.238-.211.352s-.072.113-.113.165l-.056.085c-.024.027-.045.057-.061.089-.004.008-.077-.028-.048-.077zm-4.797 16.877l1.899-3.463 1.891-3.468c1.261-2.299 5.747-10.047 6.196-10.584.028-.032.076 0 .064.048-.222.607-3.047 5.739-3.694 6.871l-3.988 6.781-1.16 1.92c-.384.642-.808 1.264-1.156 1.923-.02.037-.077.012-.052-.028zm10.685-15.389l3.475-.582 3.476-.562 6.967-1.051c4.639-.65 9.295-1.16 13.95-1.447 2.635-.161 5.254-.23 7.905-.327.057 0 .053.093 0 .097-4.688.024-9.388.521-14.051 1.051a503.58 503.58 0 0 0-13.834 1.774l-3.9.562c-1.321.194-2.643.444-3.968.57-.053.012-.073-.073-.02-.085z" class="K"/><path d="M130.954 115.266c-2.554 4.445-12.726 18.206-15.927 18.662-3.33.477-15.607-.574-17.846-3.213-1.095-1.289.675-12.358 2.376-11.739s12.205 3.156 13.554 2.958 12.233-10.738 16.246-13.009c6.919-3.92 2.975 3.94 1.597 6.341z" class="D"/><path d="M102.257 119.327l-2.591 13.716s12.298 2.518 15.923 1.459 13.76-15.47 16.718-21.168.372-7.198-4.934-3.637-13.809 11.509-14.637 11.546-10.479-1.916-10.479-1.916z" class="E"/><path d="M128.662 110.759c-.305.3-.551.653-.727 1.043.39-.175.744-.421 1.042-.728.307-.299.555-.652.732-1.042-.391.175-.746.422-1.047.727zm-26.531 20.902c-.427-.007-.852.067-1.253.218.4.154.825.229 1.253.222.429.006.856-.069 1.257-.222-.401-.156-.827-.235-1.257-.235v.017zm20.097-4.098a3.41 3.41 0 0 0-1.256.218 3.35 3.35 0 0 0 1.256.222h.166l.319-.404c-.177-.04-.323-.048-.485-.052v.016zm-8.753 3.285c-.291.81-.291 1.696 0 2.506.152-.4.227-.825.222-1.253.009-.433-.066-.864-.222-1.269v.016zm10.301-13.405a3.31 3.31 0 0 0-.218 1.253 3.43 3.43 0 0 0 .218 1.253 3.35 3.35 0 0 0 .223-1.253 3.24 3.24 0 0 0-.223-1.269v.016zm4.886-6.684c-.305.3-.551.653-.727 1.043.39-.175.744-.421 1.042-.728.307-.299.555-.652.732-1.042-.391.175-.746.422-1.047.727zm-13.227 11.316c-.309.296-.558.651-.731 1.042a3.34 3.34 0 0 0 1.042-.735c.31-.297.558-.651.732-1.043a3.42 3.42 0 0 0-1.043.707v.029zm-12.415-2.566l-.113.105c-.308.296-.555.651-.727 1.042.391-.177.745-.426 1.042-.735l.283-.315-.485-.097zm4.967 6.761c-.298-.307-.652-.554-1.043-.728a3.38 3.38 0 0 0 .732 1.043c.299.306.653.554 1.042.731-.176-.391-.424-.746-.731-1.046zm14.258 1.277a3.41 3.41 0 0 0-1.257.218 3.35 3.35 0 0 0 1.257.222h.165l.32-.404c-.194-.024-.34-.032-.502-.036h.017zm1.547-10.104a3.35 3.35 0 0 0-.218 1.253 3.43 3.43 0 0 0 .218 1.253 3.33 3.33 0 0 0 .223-1.253 3.25 3.25 0 0 0-.239-1.269l.016.016z" class="B"/><path d="M104.479 126.807l1.132-6.53s-.024-.025-.033 0c-.315 1.022-1.236 5.29-1.446 6.377-.476 2.16-.834 4.344-1.071 6.543 0 .036.056.06.068 0 .595-2.09.938-4.252 1.35-6.39z" class="F"/><path opacity=".1" d="M132.307 113.33c-2.958 5.702-13.085 20.109-16.718 21.168-2.748.808-10.459-.445-14.044-1.099l30.585-25.614c1.721.146 1.992 2.041.177 5.545z" class="I"/><path d="M121.586 140.524l30.241 1.758c-.041-.615-4.769-17.96-8.172-24.563-4.36-8.467-6.296-9.76-7.589-10.192-1.657-.554-5.056-.55-6.062 1.05-5.399 8.649-8.83 31.563-8.418 31.947z" class="E"/><path d="M128.957 110.48l-.473.999c.173-.125.337-.26.493-.405.307-.299.555-.652.732-1.042-.272.109-.526.261-.752.448zm9.101 28.014a3.39 3.39 0 0 0-.727 1.043 3.32 3.32 0 0 0 1.042-.727 3.5 3.5 0 0 0 .732-1.043c-.391.176-.746.422-1.047.727zm-9.101-28.014l-.473.999c.173-.125.337-.26.493-.405.307-.299.555-.652.732-1.042-.272.109-.526.261-.752.448zm17.762 14.771c-.076-.042-.154-.08-.235-.113a2.87 2.87 0 0 0 .453.732l-.218-.619zm-6.648-14.003a4.8 4.8 0 0 0-.368-.331 2.91 2.91 0 0 0-.667-.404c.175.391.423.745.732 1.042a3.7 3.7 0 0 0 .755.586c.092.057.188.105.287.146-.178-.391-.429-.743-.739-1.039zm-8.192 14.145c-.298-.308-.652-.557-1.043-.732.366.782.996 1.41 1.779 1.774a3.47 3.47 0 0 0-.736-1.05v.008zm7.59 4.186a3.33 3.33 0 0 0-1.253.223c.811.291 1.698.291 2.509 0-.4-.157-.827-.235-1.256-.231v.008zm-7.376-13.259c-.428-.007-.853.068-1.253.222a3.48 3.48 0 0 0 1.253.218 3.35 3.35 0 0 0 1.253-.218c-.399-.156-.824-.234-1.253-.23v.008zm-3.273 18.06c-.154.4-.23.825-.222 1.253-.005.428.07.853.222 1.253.291-.81.291-1.696 0-2.506zm17.301-1.256a3.63 3.63 0 0 0 0 2.509c.29-.811.29-1.698 0-2.509zm-6.208-13.531c-.297.809-.297 1.697 0 2.506a3.52 3.52 0 0 0 .218-1.253c.007-.427-.067-.852-.218-1.253z" class="B"/><g class="D"><path d="M141.126 111.378c7.642 9.392 15.991 24.995 11.901 28.014-3.734 2.756-16.642-.743-24.684-4.393-1.528-.691 5.545-14.181 7.096-13.271 1.634.977 3.328 1.85 5.072 2.614.441.146-1.867-2.998-4.227-10.394-2.433-7.512.461-7.941 4.842-2.57z"/><path d="M115.524 119.65c-.093 1.617 3.888 1.5 3.888 1.5-.599.35-1.057.899-1.293 1.551-.364 1.168 1.309 2.251 1.309 2.251a3.64 3.64 0 0 0-1.103 1.851c-.235 1.156 1.301 2.486 1.301 2.486a3.23 3.23 0 0 0 .057 2.239c.844 1.883 4.008 2.089 5.944 2.602a42.17 42.17 0 0 1 6.309 2.384l4.405-14.241s-8.22-5.488-10.597-5.504c-1.996-.024-10.079.408-10.22 2.881z"/></g><path d="M119.444 121.093c2.134-.501 4.381-.489 6.551-.453.048 0 .044.077 0 .077-2.154-.061-4.381.453-6.535.477-.012-.001-.023-.006-.032-.014s-.014-.018-.016-.03a.05.05 0 0 1 .006-.034c.006-.011.015-.019.026-.023zm.053 3.682c.495-.065.996-.065 1.491 0l1.58.133 3.152.404c.049 0 .049.081 0 .077l-3.156-.251-1.584-.072c-.499.011-.998-.032-1.487-.13-.022 0-.042-.009-.057-.025s-.023-.036-.022-.058.009-.041.025-.056.036-.023.058-.022zm.173 4.502c.448-.055.902-.034 1.342.064l1.439.166 2.881.283c.008.003.015.008.02.015a.04.04 0 0 1 .008.023c0 .009-.003.017-.008.024s-.012.012-.02.015l-2.934-.202-1.442-.118a3.66 3.66 0 0 1-1.294-.226c-.02-.008-.012-.04.008-.044z" class="F"/><path d="M136.729 122.115l-3.957 15.357s19.172 6.111 21.447 1.298-8.179-23.682-14.488-29.247-4.279 2.78-4.114 3.447c.736 2.962 4.474 10.79 4.474 10.79l-3.362-1.645z" class="E"/><path d="M139.913 119.594c-.297.808-.297 1.696 0 2.505a3.52 3.52 0 0 0 .218-1.253 3.39 3.39 0 0 0-.218-1.252zm6.199 13.522c-.297.81-.297 1.699 0 2.509.291-.811.291-1.698 0-2.509zm-6.651-3.545a3.35 3.35 0 0 0-1.253.223c.811.291 1.698.291 2.509 0a3.35 3.35 0 0 0-1.248-.223h-.008zm.602-18.323c-.296-.308-.649-.556-1.039-.731a3.69 3.69 0 0 0 1.774 1.774 3.35 3.35 0 0 0-.727-1.043h-.008zm13.279 26.362a3.39 3.39 0 0 0-1.038-.732c.177.391.425.746.731 1.047a3.41 3.41 0 0 0 1.043.727 3.35 3.35 0 0 0-.728-1.042h-.008zm-5.827-11.744a3.46 3.46 0 0 0-1.043-.728c.361.783.989 1.411 1.77 1.774a3.35 3.35 0 0 0-.719-1.046h-.008zm-9.465 12.629l-.323.367.457.114.181-.166a3.5 3.5 0 0 0 .732-1.043 3.47 3.47 0 0 0-1.039.728h-.008z" class="B"/><g class="F"><path d="M137.084 122.144c2.191.905 7.885 4.134 9.105 5.403.014.016.015.021.016.027-.002.02-.004.025-.008.03-.016.013-.021.015-.026.015-.021-.002-.026-.004-.03-.007-1.213-.958-8.261-4.886-9.368-5.379 0 0-.061.137-.085.173s-.068 0-.064-.032c.024-.128.057-.253.101-.376l.359.146zm1.18 8.777l1.488-6.466s-.025-.024-.033 0c-.372 1.007-1.523 5.214-1.794 6.289a60.24 60.24 0 0 0-1.431 6.466c0 .036.057.06.069 0 .707-2.033 1.172-4.175 1.701-6.289z"/><path d="M140.241 123.865c-.538-1.354-1.213-2.651-1.815-3.98l-1.778-3.981c0-.02-.037 0-.028 0l1.018 2.724-.327-.449-.538-.848h-.032a4.67 4.67 0 0 0 .493.905c.151.209.314.409.489.598l.46 1.095c.595 1.342 1.039 2.663 1.831 3.904.028.065.247.077.227.032zm11.129 16.517c-3.96.554-16.403-2.328-18.521-2.882.036-.226.036-.307.089-.626 0-.04-.057-.065-.069-.02-.077.299-.315.897-.23.933 1.01.461 14.872 3.638 18.727 2.688.061-.012.065-.101.004-.093z"/></g><path d="M120.648 134.522l-16.193 1.831-5.65-22.575 16.198-1.83 5.645 22.574z" class="L"/><path d="M119.852 134.611l-16.193 1.831-5.646-22.575 16.194-1.827 5.645 22.571z" fill="#79797e"/><path d="M106.694 123.477a1.76 1.76 0 0 0 1.887 1.382 1.42 1.42 0 0 0 .574-.182c.177-.1.33-.237.449-.402a1.43 1.43 0 0 0 .243-.551c.041-.199.039-.404-.005-.602-.092-.422-.335-.796-.684-1.05s-.778-.373-1.207-.333c-.202.02-.398.082-.574.182a1.42 1.42 0 0 0-.448.403c-.119.164-.202.352-.242.551a1.42 1.42 0 0 0 .007.602z" class="B"/><g class="D"><path d="M98.074 118.498c-.711 1.875-2.692 4.288-2.748 5.779-.029.367.061.733.257 1.044s.487.55.83.682c0 0-1.41.849-1.241 2.211.085.699 1.281 1.176 1.281 1.176s-1.103.731-.877 1.931c.178.958 1.35 1.289 1.35 1.289s-.732 1.213-.235 2.114c1.002 1.855 9.331 1.188 10.37-1.98.485-1.479-1.54-1.213-1.54-1.213s2.829-1.099 2.724-2.828-2.704-1.213-2.704-1.213 2.72-1.087 2.445-2.857c-.291-1.847-2.829-.889-2.829-.889s1.754-1.402 1.213-2.712c-.865-2.162-4.147.909-6.01.618l-1.253-2.933-1.034-.219z"/><path d="M96.615 121.267c.521-1.835-1.863-3.856-1.617-5.682.331-2.47 3.253-.307 4.142 3.168l.218 2.829-2.744-.315z"/></g><path d="M97.104 132.691c-.013.013-.015.018-.015.023.007.017.01.02.015.022a14.46 14.46 0 0 0 8.535-1.213c.085-.04.053-.194-.048-.165a29.73 29.73 0 0 1-8.487 1.333zm-.691-3.281c-.032 0-.032.052 0 .06 2.877.445 6.466-.064 9.23-1.887.093-.065.117-.214 0-.149-1.915 1.075-6.547 1.992-9.23 1.976zm8.923-5.836c-2.708 1.645-5.658 2.26-8.806 2.454-.04 0-.032.056 0 .064 1.556.323 3.54 0 5.064-.404a8.31 8.31 0 0 0 3.795-2.021c.044-.036.004-.129-.053-.093z" class="F"/><path d="M131.713 113.588c1.771.069 4.163-3.087 4.894-5.407.049-.157-.468-1.616-1.014-3.439l-.889-3.488c-.049-.238-6.87 3.173-6.87 3.173a18.69 18.69 0 0 1 1.572 4.271 2.88 2.88 0 0 1 .044.481c-.002.027-.002.054 0 .081.033.926.554 4.26 2.263 4.328z" class="D"/><path d="M134.255 101.368c.049 2.02-.234 6.943-4.041 7.787a4.39 4.39 0 0 1-.748.105c-.003-.027-.003-.054 0-.081 0-.161-.013-.322-.04-.48a18.87 18.87 0 0 0-1.572-4.28l6.401-3.051z" class="C"/><path d="M135.928 93.689c.74 2.619-.808 10.103-2.683 11.752-2.736 2.376-7.137 2.518-9.137-.756-1.936-3.172.238-12.903 2.34-14.386 3.095-2.17 8.389-.485 9.48 3.391z" class="D"/><g class="C"><path d="M128.464 98.127s.033.036.029.057c-.138.497-.207 1.087.206 1.362v.028c-.546-.21-.445-.994-.235-1.447z"/><path d="M129.038 97.71c.808.133.497 1.766-.263 1.645s-.424-1.754.263-1.645zm-3.407-.129c0-.02-.044 0-.048.036-.085.509-.267 1.079-.756 1.156 0 0-.02.028 0 .028.574.032.808-.723.804-1.221z"/><path d="M125.284 96.963c-.809-.222-1.188 1.398-.445 1.617s1.116-1.427.445-1.617zm4.526-.162a6.17 6.17 0 0 1-.59-.343c-.224-.093-.411-.256-.534-.465a.36.36 0 0 1 .003-.225c.024-.073.072-.136.135-.18.14-.066.296-.094.451-.081a.87.87 0 0 1 .43.158c.284.144.504.389.618.687a.38.38 0 0 1 0 .211.37.37 0 0 1-.113.177.38.38 0 0 1-.191.089c-.071.011-.144.001-.209-.028zm-5.124-.804c.226.014.452.014.679 0 .239.04.485-.002.699-.117.057-.048.098-.113.115-.186s.011-.149-.018-.218a.87.87 0 0 0-.809-.404 1.29 1.29 0 0 0-.885.263c-.057.048-.099.113-.119.185s-.019.149.004.22.068.134.127.18a.38.38 0 0 0 .207.078zm3.459 5.378a1.74 1.74 0 0 1-.595.404c-.224.093-.464.138-.706.134-.211-.002-.421-.035-.623-.097a.61.61 0 0 1-.117-.036l-.109-.041c-.026-.01-.047-.029-.061-.053s-.02-.053-.016-.08c-.002-.018-.002-.035 0-.053v-.044c.069-.404.223-.974.223-.974-.154.04-.946.222-.894.024a26.41 26.41 0 0 1 1.734-5.08.05.05 0 0 1 .024-.019c.01-.004.021-.004.031-.001s.019.01.025.018.009.019.009.029c-.352 1.617-.99 3.156-1.37 4.777.281-.071.571-.101.861-.089.052.029-.319 1.128-.336 1.306a2.43 2.43 0 0 0 .966.094 2.44 2.44 0 0 0 .926-.292c.032-.004.076.036.028.072z"/></g><path d="M126.642 101.869a1.92 1.92 0 0 0 .743.642c.166.076.351.097.53.061.404-.081.404-.432.363-.736-.03-.161-.081-.319-.149-.468a2.52 2.52 0 0 1-1.487.501z" class="F"/><path d="M127.385 102.503c.166.075.351.096.53.061.404-.081.404-.433.363-.736-.203-.004-.401.061-.563.183s-.278.296-.33.492z" fill="#ff9bbc"/><g class="C"><path d="M136.223 99.553c-1.988.097-2.974-2.291-2.469-4.191 0 0-5.298.59-5.459-3.637-.385.567-.903 1.031-1.509 1.351s-1.282.484-1.967.48l-.622 1.548c-.538-.166-1.083-1.718.266-2.898 0 0 .138-2.114 1.722-3.35.429-.354.951-.578 1.504-.643s1.112.03 1.612.275a4.38 4.38 0 0 1 3.2-.719 3.73 3.73 0 0 1 1.607.714c.471.363.849.833 1.101 1.371 0 0 2.603.554 3.011 2.425.126.528.139 1.076.039 1.61s-.312 1.04-.621 1.486c0 0 .642.744.275 2.324-.235.994-1.091 1.827-1.69 1.855z"/><path d="M128.42 91.333c-.049.343-.061.689-.037 1.035a4.04 4.04 0 0 0 .174 1.006c.186.648.611 1.201 1.188 1.548.595.327 1.258.508 1.936.529h1.035l1.038-.085-1.026.206c-.344.069-.699.049-1.051.073a4.27 4.27 0 0 1-2.057-.509 2.79 2.79 0 0 1-1.245-1.706 4.16 4.16 0 0 1 .045-2.097zm-2.777 2.392a5.47 5.47 0 0 0 1.617-.828 3.34 3.34 0 0 0 .63-.63 4.13 4.13 0 0 0 .461-.808c-.035.317-.138.624-.303.897a2.43 2.43 0 0 1-.639.719 3.14 3.14 0 0 1-.84.457 2.83 2.83 0 0 1-.926.194z"/></g><path d="M134.191 99.787s1.802-2.364 2.877-1.71-.343 4.122-1.661 4.55c-.165.067-.341.099-.518.096s-.353-.043-.515-.116-.307-.178-.428-.308a1.33 1.33 0 0 1-.273-.452l.518-2.061z" class="D"/><path d="M136.636 99.06v.036c-.926.331-1.439 1.152-1.811 2.021a.74.74 0 0 1 .221-.221.72.72 0 0 1 .294-.108c.104-.015.21-.007.311.023a.75.75 0 0 1 .273.152c.021 0 0 .053-.028.049a.8.8 0 0 0-.489-.022.81.81 0 0 0-.412.264 3.88 3.88 0 0 0-.457.707c-.048.077-.194.029-.157-.064v-.02c.04-1.168 1.006-2.752 2.255-2.817z" class="C"/><g opacity=".2" class="I"><path d="M131.329 100.486c-.003.018-.002.036.002.053a.14.14 0 0 0 .024.047c.012.014.026.025.042.032s.034.012.052.012.035-.004.051-.012a.11.11 0 0 0 .042-.032.14.14 0 0 0 .024-.047c.004-.017.005-.035.002-.053s-.004-.031-.011-.046-.016-.027-.027-.038-.026-.02-.041-.025-.03-.008-.046-.008c-.03.002-.059.015-.08.037s-.033.05-.034.08zm-2.521-.007c.002.031.016.061.039.083s.054.034.086.034a.12.12 0 0 0 .046-.012c.014-.008.027-.017.037-.029a.13.13 0 0 0 .03-.089c-.001-.016-.004-.031-.011-.045s-.016-.027-.027-.038a.12.12 0 0 0-.041-.024c-.015-.006-.03-.007-.046-.006-.032.002-.061.017-.082.04s-.032.054-.031.086zm.925.844c-.003.018-.002.036.002.053a.14.14 0 0 0 .024.047c.012.013.026.024.042.032a.13.13 0 0 0 .051.011c.018 0 .036-.004.052-.011a.13.13 0 0 0 .042-.032.14.14 0 0 0 .024-.047c.004-.017.005-.035.002-.053s-.004-.032-.01-.047-.016-.028-.028-.039-.025-.019-.04-.025-.032-.007-.048-.006a.12.12 0 0 0-.079.037c-.021.021-.033.05-.034.08zm1.487-1.827c.001.016.005.032.011.046s.016.028.028.038a.15.15 0 0 0 .04.025c.015.006.031.008.047.008a.12.12 0 0 0 .109-.079.12.12 0 0 0 .005-.07c-.006-.023-.018-.044-.036-.061s-.039-.027-.063-.031-.048-.001-.069.009-.041.026-.053.046-.019.044-.019.068zm-1.159.732c.005.028.019.053.041.071s.049.028.078.028a.12.12 0 0 0 .077-.028c.022-.018.037-.043.042-.071-.001-.016-.004-.032-.011-.046s-.016-.028-.027-.039-.026-.019-.041-.025a.12.12 0 0 0-.046-.007c-.03.002-.059.015-.08.036s-.033.051-.033.081zm-6.264-1.475c0 .016.004.032.01.046s.016.028.028.038a.15.15 0 0 0 .04.025c.015.006.031.008.047.008.031-.002.061-.016.082-.04s.032-.054.031-.086-.016-.062-.039-.083-.054-.034-.086-.034a.12.12 0 0 0-.082.04c-.021.023-.033.054-.031.086zm.965.642c.002.032.017.062.04.083s.054.034.086.034a.11.11 0 0 0 .082-.04c.021-.024.032-.054.031-.086-.001-.016-.004-.031-.011-.046s-.016-.028-.028-.038a.15.15 0 0 0-.04-.025c-.015-.006-.031-.008-.046-.008a.12.12 0 0 0-.082.04c-.022.023-.033.054-.032.085zm-.206.805c.002.031.017.06.04.082s.054.032.086.031c.016-.001.031-.004.046-.011s.027-.016.038-.028.02-.025.025-.04a.15.15 0 0 0 .008-.047c-.002-.031-.017-.06-.04-.082s-.054-.032-.085-.031a.12.12 0 0 0-.047.01c-.015.006-.028.016-.039.027s-.02.026-.025.041a.13.13 0 0 0-.007.048zm-.84-.517c.002.032.016.062.039.083s.054.034.086.034a.11.11 0 0 0 .082-.04c.021-.024.032-.054.031-.086 0-.016-.004-.032-.011-.046s-.016-.028-.027-.038-.025-.019-.04-.025-.031-.008-.047-.008a.12.12 0 0 0-.082.04c-.021.023-.032.054-.031.086z"/></g><path d="M160.524 82.426c0 1.848-.513 3.659-1.482 5.232s-2.357 2.846-4.008 3.676-3.499 1.186-5.34 1.026-3.601-.827-5.085-1.929l-4.882 1.249 2.021-4.55c-.709-1.336-1.105-2.817-1.158-4.329s.24-3.016.855-4.399a9.97 9.97 0 0 1 6.686-5.618 9.97 9.97 0 0 1 4.48-.084c1.481.312 2.871.957 4.065 1.886s2.161 2.118 2.828 3.476 1.015 2.85 1.02 4.363z" class="B"/><path d="M160.524 82.426a10.02 10.02 0 0 1-1.475 5.254 10.89 10.89 0 0 1-.809 1.127 11.16 11.16 0 0 1-.953.998c-.673.63-1.431 1.161-2.251 1.58-.822.424-1.697.732-2.603.917-.455.089-.915.146-1.378.17a8.81 8.81 0 0 1-1.386 0 10.06 10.06 0 0 1-5.161-1.92l.121.024-4.873 1.277-.356.093.149-.335 2.021-4.555v.17c-.727-1.36-1.133-2.868-1.187-4.409s.246-3.074.876-4.481 1.577-2.649 2.76-3.637c1.183-.973 2.571-1.666 4.059-2.027a10.16 10.16 0 0 1 4.537-.058 10.18 10.18 0 0 1 4.069 1.944c1.192.937 2.157 2.132 2.822 3.494a10.05 10.05 0 0 1 1.018 4.374zm0 0c.002-1.51-.342-3.001-1.007-4.357s-1.631-2.541-2.827-3.465a9.86 9.86 0 0 0-8.537-1.732 9.78 9.78 0 0 0-3.924 2.045c-1.122.979-2.018 2.189-2.627 3.548a9.82 9.82 0 0 0-.808 4.324 9.99 9.99 0 0 0 1.14 4.247l.044.085-.036.089-2.069 4.555-.206-.246 4.894-1.212.064-.02.057.044c1.455 1.1 3.187 1.774 5.003 1.948.453.044.908.053 1.362.024a9.64 9.64 0 0 0 1.358-.145c.898-.164 1.769-.454 2.586-.861.826-.402 1.588-.925 2.259-1.552a11.5 11.5 0 0 0 .954-.982 11.22 11.22 0 0 0 .808-1.119 9.98 9.98 0 0 0 1.512-5.217z" class="C"/><g class="E"><path d="M150.247 76.95a3.81 3.81 0 0 0-1.046 1.955c-.148.741-.072 1.509.217 2.207a3.82 3.82 0 0 0 3.528 2.358c.756 0 1.494-.224 2.122-.644a3.82 3.82 0 0 0 1.407-1.714c.289-.698.364-1.466.217-2.207s-.512-1.421-1.046-1.955c-.717-.715-1.688-1.116-2.7-1.116a3.82 3.82 0 0 0-2.699 1.116zm4.619 1.786c-.134.134-.316.209-.505.209s-.371-.075-.505-.209-.206-.316-.206-.505.074-.37.206-.505.315-.209.505-.209.371.075.505.209a.72.72 0 0 1 .157.231c.036.087.055.18.055.274s-.019.187-.055.274a.72.72 0 0 1-.157.231z"/><path d="M149.726 80.397l-.815.814 2.478 2.478.814-.814-2.477-2.478z"/></g><path d="M149.305 81.602l1.681 1.681-.412.412-.695-.214.214.695-.683.683-.921-.194.19.921-.154.158-.695-.214.214.695-.695-.214.214.695-.541.538-.922-.19.19.921-.473.473-1.871.19.19-1.867 5.169-5.169z" class="J"/><path d="M149.809 82.563l-4.815 4.815.117.117 4.815-4.815-.117-.117z" class="M"/><path opacity=".1" d="M156.264 79.642c.004.881-.34 1.728-.958 2.356-.626.638-1.479 1.001-2.373 1.011s-1.755-.335-2.395-.959c-.321-.314-.576-.689-.75-1.102a3.37 3.37 0 0 1 0-2.613 3.37 3.37 0 0 1 3.142-2.064 3.37 3.37 0 0 1 2.372 1.011 3.33 3.33 0 0 1 .962 2.36zm0 0c.001-.65-.191-1.285-.553-1.824s-.876-.959-1.478-1.204-1.262-.306-1.898-.174-1.218.451-1.672.915a3.27 3.27 0 0 0 .087 4.521 3.27 3.27 0 0 0 4.52.111 3.32 3.32 0 0 0 .732-1.073c.17-.402.259-.834.262-1.271z" class="I"/><defs ><path id="B" d="M71.349 97.488c.135.679.135 1.378 0 2.057-.135-.679-.135-1.378 0-2.057z"/></defs></svg>