<svg width="70" height="135" fill="none" xmlns="http://www.w3.org/2000/svg"><path d="M40.873 69.613a52.061 52.061 0 0 0-1.682 9.545c.085.163.07.775 0 .59 0 .519-.776.425-.776-.086v-1.008c-1.86-2.326-4.567-3.776-6.761-5.792a12.623 12.623 0 0 1-3.698-5.893c-1.815-6.257-.117-12.879-2.327-19.12-1.876-5.381-5.249-10.08-8.11-14.926-3.016-5.156-5.233-10.568-5.427-16.608-.179-4.652.372-10.778 3.876-14.243 3.73-3.676 8.359-.923 11.22 2.326 8.28 9.505 12.111 21.524 13.662 33.805.853 6.8 1.744 13.639 1.55 20.5a55.23 55.23 0 0 1-1.527 10.91z" fill="#FFCE28"/><path d="M39.221 81.654c.457-6.415.382-12.857-.225-19.26v-.07c.101-5.21.52-10.397.31-15.607a92.319 92.319 0 0 0-2.325-16.74c0-.063-.117-.047-.101 0a109.443 109.443 0 0 1 1.806 16.367 98.645 98.645 0 0 1-.07 8.832c-.046.953-.139 1.915-.201 2.876A103.053 103.053 0 0 0 22.908 17.06c-.109-.17-.411 0-.303.186A107.25 107.25 0 0 1 35.213 47.64C31.227 40.258 25.21 34.194 20.753 27.1c0 0-.094 0-.07.039 4.078 7.908 10.723 14.134 14.933 21.95.734 3.174 1.328 6.371 1.783 9.591.595 4.416.916 8.865.962 13.321-2.427-4.536-4.947-8.87-6.932-13.67-.054-.131-.24-.038-.194.086 1.69 4.985 3.962 10.35 7.133 14.6 0 3.155-.07 6.311-.256 9.46-.496 8.412-1.938 16.708-2.597 25.09a.195.195 0 0 0 .174.179.196.196 0 0 0 .206-.14 191.619 191.619 0 0 0 3.326-25.952z" fill="#263238"/><path d="M30.29 16.796c0-.055-.11 0-.094.046 1.55 4.25 2.404 8.53 3.52 12.902a.175.175 0 1 0 .35-.039c-.49-4.427-2.063-8.831-3.777-12.91z" fill="#263238"/><path d="M69.298 34.598a62.73 62.73 0 0 1-3.536 7.257c-2.76 5.024-5.645 9.63-6.203 15.507-.232 2.613-.318 5.234-1.109 7.754a23.208 23.208 0 0 1-3.101 6.063c-2.993 4.373-6.746 8.134-9.522 12.662A53.274 53.274 0 0 0 39.501 99.1c-.07.294-.528.217-.466-.078a.186.186 0 0 0 0-.07.07.07 0 0 1 0-.061c-.442-12.538.559-25.176 4.389-37.218a129.065 129.065 0 0 1 6.079-15.507c2.047-4.357 4.597-8.529 8.195-11.8 2.326-2.102 7.397-6.087 10.723-3.979 1.62 1.047 1.505 2.652.877 4.21z" fill="#FFCE28"/><path d="M56.698 63.045A103.935 103.935 0 0 1 49.41 73.52c-1.218 1.59-2.45 3.156-3.66 4.746-.574.775-1.217 1.496-1.745 2.326.334-1.318.66-2.636.993-3.955 1.62-6.334 3.171-12.731 5.582-18.825a127.103 127.103 0 0 1 8.708-17.058c.085-.148-.148-.248-.233-.109-2.652 4.358-5.342 8.707-7.567 13.305a68.107 68.107 0 0 0-3.21 7.894 122.49 122.49 0 0 1 4.272-16.872c0-.047-.054-.086-.078 0a57.723 57.723 0 0 0-4.45 17.469 106.42 106.42 0 0 0-1.505 4.93c-1.977 7.018-3.714 14.105-5.319 21.223a75.21 75.21 0 0 1 1.21-13.957.085.085 0 0 0-.163 0 44.07 44.07 0 0 0-1.217 14.732 950.694 950.694 0 0 0-1.776 8.118c-1.232 5.784-2.744 11.669-3.466 17.539a.116.116 0 0 0 .02.087.115.115 0 0 0 .077.048.118.118 0 0 0 .136-.097c.86-3.163 1.38-6.443 2.078-9.645a614.676 614.676 0 0 1 2.187-9.63 912.93 912.93 0 0 1 3.388-13.957c.775-1.705 2.28-3.217 3.404-4.652 1.233-1.55 2.473-3.101 3.675-4.73a71.28 71.28 0 0 0 6.032-9.304c.062-.1-.046-.186-.085-.1z" fill="#263238"/><path d="M57.233 57.664A65.236 65.236 0 0 0 50.1 69c0 .047.054.101.085.055 2.396-3.761 4.76-7.553 7.157-11.32.038-.063-.07-.117-.109-.07z" fill="#263238"/><path d="M3.826 46.492c1.628 2.8 3.482 6.156 2.784 9.521-.442 2.125-2 3.877-2.28 6.025-.628 4.792 4.148 7.955 7.599 10.22 8.614 5.652 20.423 10.684 21.989 22.221.054.411.775.31.713-.093a.347.347 0 0 0 0-.078v-.062a44.079 44.079 0 0 0-.163-17.623c-1.279-5.948-3.876-11.29-6.939-16.516-5.18-8.839-10.669-17.895-18.508-24.672-2.093-1.853-6.575-5.241-8.296-1.008-1.683 4.11 1.132 8.653 3.101 12.065z" fill="#FFCE28"/><path d="M11.727 65.232c5.707 6.203 14.786 9.645 19.702 16.57A69.441 69.441 0 0 0 16.286 53.36a.225.225 0 0 1 .318-.31A56.06 56.06 0 0 1 29.01 70.969a80.484 80.484 0 0 0-5.327-13.63.147.147 0 0 1 .166-.217.147.147 0 0 1 .09.07 51.95 51.95 0 0 1 5.738 15.32c6.474 15.678 7.079 34.062 5.722 50.585 0 .232-.38.24-.372 0 .372-13.018.163-26.27-2.962-38.985-.062-.272-.14-.527-.202-.776-5.35-7.459-14.383-10.909-20.16-17.988-.123-.085-.038-.178.024-.116z" fill="#263238"/><path d="M10.401 59.944c3 2.745 5.947 5.56 8.948 8.312v.054a43.701 43.701 0 0 1-9.087-8.188c-.14-.14.015-.31.14-.178zM9.928 48.011A93.278 93.278 0 0 0 18.9 60.347c0 .054 0 .124-.077.078a43.295 43.295 0 0 1-9.057-12.32c-.046-.102.101-.195.163-.094z" fill="#263238"/><path d="M23.42 134.751h26.253l-3.535-35.318H27.467l-4.047 35.318z" fill="#414249"/><path d="M26.808 105.171H46.71l-.573-5.738H27.467l-.66 5.738z" fill="#2C2E35"/><path d="M24.25 101.155h24.61v-5.637H24.25v5.637z" fill="#414249"/></svg>