<svg width="71" height="63" viewBox="0 0 71 63" fill="none" xmlns="http://www.w3.org/2000/svg">
<g clip-path="url(#clip0_704_1050)">
<path d="M46.4844 61.7499H14.4922C10.459 61.7499 6.98359 60.6794 4.43926 58.6546C1.53535 56.3413 0 52.9111 0 48.7343C0 44.7093 1.65293 41.3173 4.78516 38.9261C6.77441 37.4044 9.35293 36.3462 12.0586 35.9183C12.8871 30.8706 15.0555 26.549 18.3873 23.3402C21.9682 19.8951 26.7498 17.9797 31.7188 17.9999C36.1389 17.9999 40.2158 19.456 43.5094 22.2095C45.9914 24.3033 47.9104 26.9846 49.0916 30.0093C52.8076 30.6218 56.1449 32.1531 58.6018 34.3953C61.7654 37.2773 63.4375 41.2175 63.4375 45.7812C63.4375 50.2724 61.6424 54.3767 58.3789 57.3367C55.2494 60.1831 51.0234 61.7499 46.4844 61.7499Z" fill="#2C2E35"/>
<path d="M52.2207 26.1936C55.8438 27.141 59.0566 28.835 61.6064 31.1619C61.961 31.4864 62.3014 31.8209 62.6277 32.1654C66.1018 29.6498 68.8443 26.024 70.0557 22.4064C67.8354 23.373 65.2281 23.7531 62.6523 23.7531C52.6145 23.7531 46.8025 17.9412 46.8025 7.90332C46.8025 5.32754 47.1826 2.72031 48.1492 0.5C42.6244 2.3498 37.075 7.77207 35.5 13.9162C39.5065 14.5401 43.2661 16.2478 46.3719 18.8545C48.7921 20.8856 50.7809 23.3811 52.2207 26.1936Z" fill="#FFCE28"/>
</g>
<defs>
<clipPath id="clip0_704_1050">
<rect width="71" height="62" fill="white" transform="translate(0 0.5)"/>
</clipPath>
</defs>
</svg>
