<svg width="72" height="90" viewBox="0 0 72 90" fill="none" xmlns="http://www.w3.org/2000/svg">
<path d="M23.3662 31.4463H48.6317M47.1092 31.4463L45.7895 33.9541V35.178C45.7895 37.7746 44.758 40.2648 42.9219 42.1009C41.0858 43.937 38.5956 44.9685 35.9989 44.9685C33.4023 44.9685 30.9121 43.937 29.076 42.1009C27.2399 40.2648 26.2084 37.7746 26.2084 35.178V33.9541L24.8887 31.4463M48.6317 58.4907H23.3662" stroke="#2C2E35" stroke-linecap="round" stroke-linejoin="round"/>
<path d="M24.8887 58.4907L26.2083 55.9829V54.7591C26.2083 52.1625 27.2398 49.6722 29.0759 47.8361C30.912 46 33.4023 44.9685 35.9989 44.9685C38.5955 44.9685 41.0858 46 42.9218 47.8361C44.7579 49.6722 45.7894 52.1625 45.7894 54.7591V55.9829L47.1091 58.4907" fill="#FFCE28"/>
<path d="M24.8887 58.4907L26.2083 55.9829V54.7591C26.2083 52.1625 27.2398 49.6722 29.0759 47.8361C30.912 46 33.4023 44.9685 35.9989 44.9685C38.5955 44.9685 41.0858 46 42.9218 47.8361C44.7579 49.6722 45.7894 52.1625 45.7894 54.7591V55.9829L47.1091 58.4907H24.8887Z" stroke="#2C2E35" stroke-linecap="round" stroke-linejoin="round"/>
<path d="M37.8739 2.19726C45.199 8.57048 53.3221 10.249 59.8959 5.40059C60.3642 5.07797 60.9193 4.90485 61.488 4.90405C62.0566 4.90326 62.6122 5.07482 63.0814 5.39613L69.6798 9.69398C70.3257 10.1151 70.778 10.7755 70.9373 11.53C71.0965 12.2845 70.9497 13.0714 70.5291 13.7176C67.5686 18.0108 65.819 23.0222 65.4644 28.2251C65.4644 36.6692 70.6049 43.524 70.6049 53.0693C70.6049 67.9602 62.6311 76.654 54.858 78.8921C39.9693 83.1743 42.2141 88.4374 35.9992 88.4374C29.7842 88.4374 32.029 83.1765 17.1403 78.8921C9.36496 76.6562 1.39343 67.9602 1.39343 53.0693C1.39343 43.524 6.53168 36.6692 6.53168 28.2251C6.1777 23.0224 4.42897 18.0111 1.46922 13.7176C1.04952 13.0713 0.90346 12.2847 1.06312 11.5308C1.22277 10.7768 1.67509 10.117 2.32077 9.69621L8.91913 5.39613C9.38811 5.07531 9.94324 4.90402 10.5115 4.90482C11.0797 4.90561 11.6343 5.07845 12.1024 5.40059C18.6762 10.249 26.7993 8.56825 34.1244 2.19726C34.6455 1.74747 35.3108 1.5 35.9992 1.5C36.6875 1.5 37.3529 1.74747 37.8739 2.19726Z" stroke="#2C2E35" stroke-linecap="round" stroke-linejoin="round"/>
</svg>
